<?xml version="1.0" standalone="no"?>
<!DOCTYPE svg PUBLIC "-//W3C//DTD SVG 20010904//EN"
				"http://www.w3.org/TR/2001/REC-SVG-20010904/DTD/svg10.dtd">
<svg version="1.0" xmlns="http://www.w3.org/2000/svg"
		 width="512.000000pt" height="512.000000pt" viewBox="0 0 512.000000 512.000000"
		 preserveAspectRatio="xMidYMid meet">

	<g transform="translate(0.000000,512.000000) scale(0.100000,-0.100000)"
		 fill="#000000" stroke="none">
		<path d="M2475 5109 c-232 -22 -488 -85 -709 -174 -163 -65 -248 -108 -390
-195 -707 -438 -1158 -1185 -1212 -2008 l-7 -102 452 0 c421 0 452 1 457 18
42 127 159 264 274 320 184 89 391 80 548 -24 l53 -35 27 19 c141 99 2249
1583 2285 1609 l47 35 -42 33 c-171 130 -450 282 -663 360 -338 125 -756 178
-1120 144z"/>
		<path d="M3125 3375 c-840 -593 -1000 -709 -999 -728 1 -12 6 -56 10 -97 l9
-74 60 -19 c238 -73 2420 -715 2423 -712 2 2 19 45 39 97 141 376 165 838 63
1232 -92 355 -272 676 -529 939 -36 37 -68 67 -71 67 -3 0 -455 -318 -1005
-705z"/>
		<path d="M1508 2715 c-59 -22 -102 -60 -134 -117 -72 -132 -7 -303 135 -354
94 -34 207 -2 274 76 102 120 64 310 -76 382 -52 26 -149 33 -199 13z"/>
		<path d="M174 2268 c50 -444 226 -884 499 -1247 94 -125 184 -221 224 -238 27
-11 344 -13 1824 -13 1650 0 1794 1 1826 17 39 18 156 149 250 281 64 89 165
253 160 258 -3 4 -183 58 -527 159 -118 35 -629 186 -1135 335 -506 150 -991
293 -1078 318 l-157 46 -17 -25 c-9 -13 -43 -50 -75 -81 -166 -161 -425 -194
-639 -82 -112 59 -222 192 -263 317 -5 16 -35 17 -452 17 l-447 0 7 -62z"/>
		<path d="M802 348 c3 -97 8 -133 24 -169 31 -66 78 -114 142 -146 l57 -28
1695 0 1695 0 51 27 c54 28 112 86 141 140 13 26 18 63 21 166 l4 132 -1917 0
-1917 0 4 -122z"/>
	</g>
</svg>
