<?xml version="1.0" standalone="yes"?>
<svg xmlns="http://www.w3.org/2000/svg" width="128" height="128">
	<path style="fill:#000000; stroke:none;"
				d="M0 0L0.0246914 5.02469L0.151235 10L0.0501543 14L0.000771605 18L0 30L0 55L0 109L0.0246914 113L0.151235 118L0.0246914 122.975L0 128L5.02469 127.975L10 127.849L14 127.95L18 127.999L30 128L55 128L109 128L113 127.975L118 127.849L122.975 127.975L128 128L127.975 122.975L127.849 118L127.95 114L127.999 110L128 98L128 74L128 19L127.975 15L127.849 10L127.975 5.02469L128 0L122.975 0.0246887L118 0.151237L114 0.0501556L110 0.000770569L98 0L74 0L19 0L15 0.0246887L10 0.151237L5.02469 0.0246887L0 0z"/>
	<path style="fill:#ffffff; stroke:none;"
				d="M9.66667 0.333336L9.66667 0.666664L10.3333 0.666664L10.3333 0.333336L9.66667 0.333336M117.667 0.333336L117.667 0.666664L118.333 0.666664L118.333 0.333336L117.667 0.333336M7 1L8 2L7 1M120 1L121 2L120 1z"/>
	<path style="fill:#818596; stroke:none;"
				d="M12 2L13.0864 2.58488L13.517 2.64198L14.321 2.83951C15.5433 2.98187 16.7763 2.98228 18.0046 2.99692L24 3L44 3L116 3L114.914 2.41512L114.483 2.35802L113.679 2.16049C112.457 2.01813 111.224 2.01772 109.995 2.00308L104 2L84 2L12 2z"/>
	<path style="fill:#ffffff; stroke:none;" d="M4 3L3 5L4.08333 4L4.41667 3.66666L4 3z"/>
	<path style="fill:#72778c; stroke:none;" d="M9 3L10 4L9 3z"/>
	<path style="fill:#00365e; stroke:none;"
				d="M10 3L11.0864 3.58488L11.517 3.64198L12.321 3.83951C13.5433 3.98187 14.7763 3.98228 16.0046 3.99692L22 4L43 4L117 4L115.914 3.41512L115.483 3.35802L114.679 3.16049C113.457 3.01813 112.224 3.01772 110.995 3.00308L105 3L84 3L10 3z"/>
	<path style="fill:#72788c; stroke:none;" d="M118 3L119 4L118 3z"/>
	<path style="fill:#ffffff; stroke:none;" d="M123 3L123 4L125 5L124 3L123 3z"/>
	<path style="fill:#9097a5; stroke:none;" d="M7 4L8 5L7 4z"/>
	<path style="fill:#0d3c63; stroke:none;"
				d="M4 13L5.1767 12.3457L5.47839 12.0054L6.15432 11.3943L6.75617 10.7022L8.26389 9.07484L10.054 7.50926L11.0185 6.85725L13.0008 5.89352L15 5.34414L16 5.18904L18 5.04012L19 5.01466L22 5L36 5L84 5L104 5L107 5.00077L109 5.01466C111.024 5.06842 113.085 5.15842 114.999 5.89352L116.981 6.85725L117.946 7.50926L119.736 9.07484L121.244 10.7022L121.846 11.3943L122.522 12.0054L122.823 12.3457L124 13L123.897 11.3295L123.655 9.85802L123.427 9.01003L123.106 8.1088L122.142 6.51234L121.486 5.85802L119.867 4.89352L117.981 4.34414L116.995 4.18904L115 4.04012L113 4.00386L110 4L101 4L29 4L20 4L15 4.00386C13.9969 4.01786 13.0019 4.0392 12.0008 4.1088L10.0154 4.43364L8.1088 5.17901L6.43364 6.4321L5.17901 8.08411L4.43441 9.85493L4.11806 11.3295L4 13z"/>
	<path style="fill:#9098a5; stroke:none;" d="M120 4L121 5L120 4z"/>
	<path style="fill:#485371; stroke:none;" d="M6 5L7 6L6 5z"/>
	<path style="fill:#52455b; stroke:none;"
				d="M13 5L14.0864 5.58488L14.517 5.64198L15.321 5.83951C16.5433 5.98187 17.7763 5.98228 19.0046 5.99692L24 6L44 6L115 6L113.914 5.41512L113.483 5.35802L112.679 5.16049C111.457 5.01813 110.224 5.01772 108.995 5.00308L104 5L84 5L13 5z"/>
	<path style="fill:#475272; stroke:none;" d="M5 6L6 7L5 6z"/>
	<path style="fill:#7b4e50; stroke:none;" d="M10 6L11 7L10 6z"/>
	<path style="fill:#ff7305; stroke:none;"
				d="M10 9C11.6681 8.69032 13.3343 8.33693 15.0247 8.16898C17.3391 7.93904 19.6775 8.00089 22 8L32 8L64 8L96 8L106 8C108.322 8.00089 110.661 7.93904 112.975 8.16898C114.666 8.33693 116.332 8.69032 118 9L117.346 7.6713L116.39 6.86883L114.851 6.29321L112.981 6.0571C111.654 5.99741 110.328 6.00273 109 6L96 6L33 6L19 6C17.6723 6.00273 16.346 5.99741 15.0193 6.0571L13.1489 6.29321L11.6103 6.86883L10.6543 7.6713L10 9z"/>
	<path style="fill:#7a4e4f; stroke:none;" d="M117 6L118 7L117 6z"/>
	<path style="fill:#ffffff; stroke:none;" d="M1 7L2 8L1 7z"/>
	<path style="fill:#949ba8; stroke:none;" d="M4 7L5 8L4 7z"/>
	<path style="fill:#ff7011; stroke:none;"
				d="M9 7L7.80015 8.6713L7.56096 9.15895L6.69676 11.0448L6.22377 13.0046L6.04398 15L6.00077 18L6 25L6 56L6 101L6 107L6.00386 111C6.01786 112.003 6.0392 112.998 6.1088 113.999L6.43364 115.985L7.17901 117.891L7.74228 118.772L9.2284 120.258L11.044 121.258L13.0039 121.772L14.0008 121.891C15.0019 121.961 15.9969 121.982 17 121.996L23 122L33 122L96 122L106 122L111 121.996C112.003 121.982 112.998 121.961 113.999 121.891L114.996 121.772L116.956 121.258L118.772 120.258L119.566 119.566L120.258 118.772L121.258 116.956L121.772 114.996L121.891 113.999C121.961 112.998 121.982 112.003 121.996 111L122 105L122 94L122 31L122 20L121.956 15L121.773 13.0046L121.282 11.0586L120.417 9.32098L119.427 8.08642L118 7L118.281 8.6713L118.443 9.15895L118.711 10.1605L119.29 12.0247L119.545 13.0046L119.871 15C120.02 16.3238 119.996 17.6702 119.999 19L120 25L120 42L120 86L120 106L119.999 109L119.981 111L119.852 112.999L119.682 113.996L118.972 115.956L117.682 117.772L116.852 118.566L114.981 119.821L112.999 120.566L111 120.891L110 120.956L106 121L95 121L33 121L21 120.999L18 120.956L16 120.772L14.0046 120.258L12.0586 119.258L10.3179 117.772L9.02778 115.956L8.6034 114.985L8.3179 113.996L8.05864 112C7.99768 110.667 8.00274 109.334 8 108L8 88L8 30L8 21L8.00463 18C8.01658 17.0009 8.01845 15.9945 8.12886 15L8.25849 14.0008L8.69599 12.0185C8.92208 11.1197 9.2184 10.2353 9.38349 9.32098L9.3858 8.51698L9.44522 8.08642L9 7z"/>
	<path style="fill:#959ba8; stroke:none;" d="M123 7L124 8L123 7z"/>
	<path style="fill:#ffffff; stroke:none;" d="M126 7L127 8L126 7z"/>
	<path style="fill:#5c4659; stroke:none;" d="M12 8L13 9L12 8z"/>
	<path style="fill:#003766; stroke:none;"
				d="M13 8L14.0864 8.58488L14.517 8.64198L15.321 8.83951C16.5433 8.98187 17.7763 8.98228 19.0046 8.99692L24 9L44 9L115 9L113.914 8.41512L113.483 8.35802L112.679 8.16049C111.457 8.01813 110.224 8.01772 108.995 8.00308L104 8L84 8L13 8z"/>
	<path style="fill:#5c4659; stroke:none;" d="M115 8L116 9L115 8z"/>
	<path style="fill:#ffffff; stroke:none;"
				d="M0.333333 9.66666L0.333333 10.3333L0.666667 10.3333L0.666667 9.66666L0.333333 9.66666z"/>
	<path style="fill:#767b8f; stroke:none;" d="M3 9L4 10L3 9z"/>
	<path style="fill:#48445a; stroke:none;" d="M10 9L11 10L10 9z"/>
	<path style="fill:#193d62; stroke:none;"
				d="M9 115L9.58488 113.914L9.64198 113.483L9.83951 112.679C9.94389 111.783 9.95753 110.882 9.98611 109.981L10 106L10 94L10 49L10 39L10.0046 36C10.0206 34.6633 10.0401 33.3224 10.2593 32C10.485 30.6378 10.9012 29.3207 11.3441 28.0162C11.7508 26.8184 12.1426 25.6084 12.6543 24.4498L13.2515 23.2392L14 22L12.983 20.3287L12.4498 18.8395L12.1242 16.9799L12.0177 15.0432L12 11L13.6713 11.0193L14.159 11.054L16.0401 11.2593L17.9599 11.7114L19.841 12.3194L20.3287 12.5054L22 13L22.6543 11.6713L23.6103 10.8688L25.1489 10.2932L27.0193 10.0571L30 10.0008L34 10L41 10L43.9954 10.0177L45.9414 10.1242L47.679 10.4498L48.483 10.8364L48.9136 10.983L50 12L51.625 11.8619L53 12.1173L53.375 12.1744L55 13L56.6698 12.2747L58.1358 11.8326L59.8642 11.7091L61.3302 12.0401L63 13L65 12.0795L66 11.679L66.375 11.5046L68 11L68.5046 12.625L68.679 13L69.0795 14L70 16L70.7446 14.9375L70.9568 14.5556C71.4351 13.8778 71.889 13.1753 72.5694 12.6752L73.304 12.2052L74.1451 11.8534L75.0579 11.6073L77.0046 11.3133C78.9911 11.0648 81.001 11.0246 83 11.0039L86 11C87.6683 11.0034 89.3332 11.0061 91 11.0856L95 11.4059L97 11.4105C98.3343 11.3482 99.6648 11.2098 101 11.3441L103 11.706C103.991 11.9332 104.977 12.2323 106 12.2863L108 12.1759L109.995 11.7809L110.975 11.6196L112.84 11.5478L114.329 11.7076L116 12L116 18L114.611 17.6389L114.25 17.3056L113.556 16.7778L112.444 15.6944L112.167 15.3611L111 15L111 19L112.625 19.4329L114 19.7207L114.375 19.8079L116 20C116.007 21.9972 115.929 24.0262 116.259 26.0046C116.543 27.7062 117.144 29.3265 117.545 31C117.86 32.3153 117.933 33.6544 117.981 35L118 38L118 44L118 62L118 115L118.585 113.914L118.642 113.483L118.84 112.679C118.944 111.784 118.964 110.881 118.986 109.981L119 105L119 90L119 36L119 25C119 22.6676 118.966 20.3317 119.035 18L119.126 16.0008L119.196 14.0193L119.142 13.0586L118.972 12.1481L118.168 10.6034C117.592 9.94186 116.739 9.49618 115.887 9.3179L114.955 9.14815L113.985 9.05864L111 9.00077L105 9L94 9L31 9L21 9L18 9.00077L16.0008 9.01543C14.7056 9.0563 13.3673 9.06175 12.1127 9.43364C11.2613 9.68601 10.4342 10.0648 9.83179 10.7423L9.02778 12.2284L8.85802 13.1088L8.80401 14.044L8.8233 15.0154L8.92593 17.0008L8.98611 19L9 22L9 26L9 38L9 115z"/>
	<path style="fill:#777c8f; stroke:none;" d="M124 9L125 10L124 9z"/>
	<path style="fill:#ffffff; stroke:none;"
				d="M127.333 9.66666L127.333 10.3333L127.667 10.3333L127.667 9.66666L127.333 9.66666z"/>
	<path style="fill:#003b63; stroke:none;"
				d="M3 10L3 117L3.8966 115.914L4.42052 114.679L4.79707 112.941L4.95756 110.995L4.98457 109.999L4.99614 109L5 106L5 92L5 35L5 21L4.95988 17.0008L4.90741 16.0046L4.68056 14.0586L4.26466 12.321L3.76775 11.0864L3 10z"/>
	<path style="fill:#8b534a; stroke:none;" d="M6 10L7 11L6 10z"/>
	<path style="fill:#183d62; stroke:none;"
				d="M22 10L23.0864 10.5849L23.517 10.6427L24.321 10.8434L25.1366 10.9213L27.9599 11.1752L29.841 11.4784L30.3287 11.5679L32 12L32 14L30 15L29 15L29 29L29.6034 27.9182L29.696 27.5015L29.9637 26.7377L30.4159 25.2623L30.8225 24.4985L30.9799 24.0818L32 23L31.966 21.3287L32.0262 20.841L32.1065 19.8395L32.6543 16.0231C32.7857 14.9093 32.8806 13.7913 32.9398 12.6713L33 11L34.6512 11.1597L35.1011 11.3148L36.0154 11.6042L37.4468 12.6034L38.4938 14.1481L38.8403 15.0586L39.091 16.0193C39.3298 16.999 39.4493 18.0091 39.6312 19C39.8768 20.3381 40.137 21.6717 40.4313 23L41.0949 25.9753L41.3457 27.8395L41.3194 29.3287L41 31L39 31L38.6852 29.5062L38.5417 29L38 27L36.3904 27.1582L35.1574 27.5795L34.0046 28.4437L33.341 29.4884L33 31L31.3287 30.7253L29.8441 30.5301L28.9745 30.4236C27.7977 30.2405 26.5326 30.07 25.6034 29.2415L25.0278 28.5965L24.6034 27.8133L24.3179 26.9267L24.0586 24.9946L24.0193 23.9992L24 21.0046L24 15L22.7585 15.6528L21.8557 16.5856L20.9915 17.9884L20.4282 19.3488L20 21L21.1443 22.517L21.4915 23.321L21.5579 25.054L20.9545 26.946L19.6829 28.6821L17.966 29.9722L17.0255 30.3966L15.1582 30.8526L14.6713 30.9383L13 31L13 29L12 28L10.983 29.0864L10.8364 29.517L10.4498 30.321L10.1242 32.0586L10.0177 34.0046L10 37L10 48L10 97L10 105L9.96065 110L9.83488 111.999L9.7338 112.995L9.57253 114.941L9.6034 115.852L9.77315 116.682L10.1173 117.397L10.6427 117.972C11.3114 118.541 12.2215 118.724 13.0594 118.852L15.0046 118.981L17 118.999L22 119L33 119L94 119L105 119L111 118.999L113.981 118.941L114.941 118.852L115.848 118.682C116.641 118.51 117.418 118.076 117.883 117.397C118.379 116.67 118.426 115.788 118.427 114.941L118.266 112.995L118.089 111C117.966 109.004 118.001 106.999 118 105L118 95L118 51L118 39C118 37.008 118.007 35.0163 117.966 33.0247L117.84 31.1605L117.642 30.159L117.585 29.6713L117 28L115.989 28.909L115.806 29.3472L115 31L113.329 30.9583L111.84 30.8341L108.017 30.4012L106.138 30.2431L105.321 30.1644L104.517 29.9028L104.086 29.838L103 29L101.329 29.3688L98.9552 29.892C97.644 30.1425 96.3231 30.3154 95 30.4892C94.0054 30.6199 93.0032 30.7571 92 30.8025L90 30.8063L87 30.5934L85 30.5941L84 30.6644C83.0005 30.7449 82.0032 30.8529 81 30.8789C79.6688 30.9133 78.3261 30.8446 77.0039 30.686L75.044 30.392L74.1088 30.1435L73.2284 29.7809L71.7415 28.652L70.7199 27.0864L70.4715 26.6474L70 25L69.3534 26.081L69.2106 26.4938L68.8426 27.2477L68.49 27.9514L67.4105 29.26L66.6852 29.7307L65.8526 30.0625L64.9414 30.2762L62.9954 30.5316C61.6701 30.6824 60.3346 30.7868 59 30.7585C57.9966 30.7372 57.003 30.6197 56.0046 30.5316L55.0193 30.4221L53.1481 30.0617L52.3179 29.7261L51.6034 29.2415L51.0278 28.5965L50.3179 26.9267L50.1481 25.9769L50.0193 23.9992L50 21.0046L50 15L48 15L47.9992 22.0015L47.9807 23.9992L47.8519 25.9761L47.6829 26.9221L47.4012 27.7932L46.9915 28.534L46.4552 29.0787L45.1698 29.3688L44.0085 28.534L43.5988 27.7932L43.3171 26.9221L43.1481 25.9761L43.0193 23.9992L43.0008 22.0015L43 15L42 15L40 14L40 12L42.159 11.4784L43.159 11.2894L45 11.0903L46.841 11.0147L50 11L48.9136 10.4151L48.483 10.358L47.679 10.1605C46.7838 10.0562 45.8812 10.0361 44.9815 10.0139L40 10L22 10z"/>
	<path style="fill:#8a534a; stroke:none;" d="M121 10L122 11L121 10z"/>
	<path style="fill:#003b63; stroke:none;"
				d="M124 10C123.69 11.668 123.337 13.3342 123.169 15.0247C123.005 16.6786 123.009 18.34 123.001 20L123 26L123 40L123 90L123 101L122.999 107C122.993 108.335 122.982 109.666 122.906 111L122.66 113C122.122 115.78 120.847 118.486 118.66 120.347L116.906 121.543L115.96 121.991L113.996 122.606L112.999 122.786L111 122.957L107 123L88 123L38 123L23 123L19 123.001L16.0046 123.04L14.0448 123.178L12.159 123.478L11.6713 123.568L10 124L11.0864 124.585L11.517 124.642L12.321 124.84C13.2162 124.944 14.1188 124.964 15.0185 124.986L20 125L36 125L94 125L105 125L111 124.996C112.334 124.978 113.675 124.977 115 124.79L116.995 124.387L118.945 123.713L119.867 123.276L121.501 122.181L122.772 120.725L123.276 119.867L123.713 118.945L124.08 117.981L124.62 115.999C124.89 114.678 124.945 113.343 124.985 112L124.999 110L125 106L125 95L125 36L125 20L124.986 15.0185C124.964 14.1189 124.944 13.2162 124.84 12.321L124.642 11.517L124.585 11.0864L124 10z"/>
	<path style="fill:#b55e39; stroke:none;" d="M8 11L9 12L8 11z"/>
	<path style="fill:#001f4f; stroke:none;"
				d="M12.6667 11.3333L12.6667 11.6667L13.3333 11.6667L13.3333 11.3333L12.6667 11.3333z"/>
	<path style="fill:#70768c; stroke:none;"
				d="M14 11L15.0602 11.5849L15.4722 11.642L16.1605 11.8395L17.3904 11.9645L19 12L17.9398 11.4151L17.5278 11.358L16.8395 11.1605L15.6096 11.0355L14 11z"/>
	<path style="fill:#70758c; stroke:none;"
				d="M22 11L23.0864 11.5849L23.517 11.642L24.3194 11.8395C25.2013 11.9431 26.0879 11.9568 26.9738 11.9861L28.8418 11.9992L31 12L29.9136 11.4151L29.483 11.358L28.6806 11.1605C27.7987 11.0569 26.9121 11.0432 26.0262 11.0139L24.1582 11.0008L22 11z"/>
	<path style="fill:#00124e; stroke:none;"
				d="M33.3333 11.6667L33.3333 12.3333L33.6667 12.3333L33.6667 12L33.3333 11.6667z"/>
	<path style="fill:#70758c; stroke:none;"
				d="M34 11L35.0401 11.5849L35.3588 11.6412L36.4776 11.8974L38 12L36.9599 11.4151L36.6412 11.3588L35.5224 11.1026L34 11M41 11L42.0864 11.5849L42.517 11.642L43.3194 11.8395C44.2013 11.9431 45.0879 11.9568 45.9738 11.9861L47.8418 11.9992L50 12L48.9136 11.4151L48.483 11.358L47.6806 11.1605C46.7987 11.0569 45.9121 11.0432 45.0262 11.0139L43.1582 11.0008L41 11z"/>
	<path style="fill:#71768d; stroke:none;"
				d="M51 11L51.909 11.5849L52.3472 11.6528L54 12L53.091 11.4151L52.6528 11.3472L51 11M57 11L58.0602 11.5849L58.4722 11.642L59.1605 11.8395L60.3904 11.9645L62 12L60.9398 11.4151L60.5278 11.358L59.8395 11.1605L58.6096 11.0355L57 11z"/>
	<path style="fill:#72768d; stroke:none;"
				d="M65 11L65.909 11.5849L66.3472 11.6528L68 12L67.091 11.4151L66.6528 11.3472L65 11z"/>
	<path style="fill:#71768d; stroke:none;"
				d="M72 11L72.909 11.5849L73.3472 11.6528L75 12L74.091 11.4151L73.6528 11.3472L72 11z"/>
	<path style="fill:#70758c; stroke:none;"
				d="M76 11L77.0864 11.5849L77.517 11.642L78.3194 11.8395C79.2012 11.9431 80.088 11.9568 80.9738 11.9861L82.8418 11.9992L85 12L83.9136 11.4151L83.483 11.358L82.6806 11.1605C81.7987 11.0569 80.9121 11.0432 80.0262 11.0139L78.1582 11.0008L76 11z"/>
	<path style="fill:#002f59; stroke:none;"
				d="M85 11L85 15L80 15L81.0602 15.5849L81.4722 15.642L82.1605 15.8395L83.3904 15.9645L85 16L84.7863 17.6713L84.7052 19.159L84.7446 21L84.9622 24.3287L85 26L80 26L81.0664 26.6451L81.4583 26.7847C82.1303 27.1025 82.8284 27.4207 83.4483 27.8349L84.3503 28.6682L85 30L85.5849 28.9136L85.642 28.483L85.8395 27.679C85.9439 26.7828 85.9575 25.8817 85.9861 24.9815L86 21L85.9861 16.0185C85.9639 15.1189 85.9438 14.2162 85.8395 13.321L85.642 12.517L85.5849 12.0864L85 11z"/>
	<path style="fill:#70758c; stroke:none;"
				d="M86 11L87.0864 11.5849L87.517 11.642L88.3194 11.8395C89.2012 11.9431 90.088 11.9568 90.9738 11.9861L92.8418 11.9992L95 12L93.9136 11.4151L93.483 11.358L92.6806 11.1605C91.7987 11.0569 90.912 11.0432 90.0262 11.0139L88.1582 11.0008L86 11M97 11L98.0849 11.5849L98.5123 11.642L99.2963 11.8395L100.898 11.966L104 12L102.915 11.4151L102.488 11.358L101.704 11.1605L100.102 11.034L97 11z"/>
	<path style="fill:#70768c; stroke:none;"
				d="M109 11L110.06 11.5849L110.472 11.642L111.16 11.8395L112.39 11.9645L114 12L112.94 11.4151L112.528 11.358L111.84 11.1605L110.61 11.0355L109 11z"/>
	<path style="fill:#b55e39; stroke:none;" d="M119 11L120 12L119 11z"/>
	<path style="fill:#818596; stroke:none;"
				d="M2 12L2 116L2.58488 114.914L2.64198 114.483L2.83951 113.679C2.94389 112.783 2.95753 111.882 2.98611 110.981L3 107L3 92L3 39L3 22L2.98611 17.0185C2.96387 16.1188 2.94377 15.2162 2.83951 14.321L2.64198 13.517L2.58488 13.0864L2 12z"/>
	<path style="fill:#62748b; stroke:none;" d="M12 12L13 13L12 12z"/>
	<path style="fill:#ffffff; stroke:none;"
				d="M12 21L13.6505 21.5918L14.9977 22.3133L16.331 23.4884L17.108 24.973L17.2068 25.8958L17 28L15 28L14.4722 26.6111L14.1389 26.2778L13.2222 25.3611L12 25L12.3148 27.0116L12.6042 27.8426L13.6026 28.9923L15.1289 29.625L16 29.7037L16.8711 29.6235L17.6867 29.3773L18.9722 28.3958L19.6775 26.8526L19.8326 25.946L19.8326 24.0502L19.6775 23.1327L19.3974 22.2785L18.9769 21.5139L18.4213 20.8588L17.0123 19.8989L16.1003 19.5525L15.6512 19.3735L14 19L14.1111 17.5L14.7222 16.0833L16 15.0556L16.7222 15.0278L17.3889 15.3333L18.5556 16.3056L18.8333 16.6389L20 17L20 12L17.8457 12.0193L16.0139 12.1481C15.1669 12.2837 14.2913 12.4769 13.6019 13.0278L13.0278 13.6034L12.6034 14.3164L12.1481 16.034C11.9494 17.6789 12.0058 19.3471 12 21M22 12L22.3611 13.1389L22.6667 13.3333L23.6111 13.8889L25 14L25 30L27 30L27 14L31 14L31 12L22 12z"/>
	<path style="fill:#000042; stroke:none;"
				d="M31.3333 12.6667L31.3333 13L31.6667 13.3333L31.6667 12.6667L31.3333 12.6667z"/>
	<path style="fill:#ffffff; stroke:none;"
				d="M34 12L33.6844 13.6713L32.6003 19.0015C32.199 20.9958 31.8179 22.9955 31.3488 24.9753C30.9486 26.6643 30.4696 28.3295 30 30L31.3889 29.8889L32.3333 29.2778L32.6667 28.7222L32.9722 27.4722L33 26L35.1049 26.3102L36.0301 26.5849L37.5455 27.4545L38.8472 28.5378L39.5216 29.0633L39.8233 29.3657L41 30L40.902 28.3287L40.7099 26.8395C40.3945 24.8823 39.9998 22.9362 39.5756 21C39.149 19.0529 38.6514 17.1238 38.3009 15.1605L38.0988 13.6713L38 12L34 12z"/>
	<path style="fill:#00144e; stroke:none;"
				d="M38.3333 12.6667L38.3333 13.3333L38.6667 13.3333L38.6667 13L38.3333 12.6667z"/>
	<path style="fill:#00144f; stroke:none;"
				d="M40.3333 12.6667L40.3333 13.3333L40.6667 13.3333L40.6667 13L40.3333 12.6667z"/>
	<path style="fill:#ffffff; stroke:none;"
				d="M41 12L41.3611 13.1389L41.6667 13.3333L42.6111 13.8889L44 14L44 30L46 30L46 14L50 14L50 12L41 12z"/>
	<path style="fill:#000017; stroke:none;"
				d="M50.3333 12.6667L50.3333 13.3333L50.6667 13.3333L50.6667 13L50.3333 12.6667z"/>
	<path style="fill:#ffffff; stroke:none;" d="M51 12L51 30L53 30L53 12L51 12z"/>
	<path style="fill:#cfd5db; stroke:none;"
				d="M53 12L53 30L53.5849 28.9136L53.642 28.483L53.8395 27.679C53.9439 26.7828 53.9575 25.8817 53.9861 24.9815L54 21L53.9861 17.0185C53.9575 16.1183 53.9439 15.2172 53.8395 14.321L53.642 13.517L53.5849 13.0864L53 12z"/>
	<path style="fill:#000023; stroke:none;"
				d="M54 12L54 29L54.5849 27.9136L54.642 27.483L54.8395 26.679L54.966 24.9414L55 21L54.9992 19.0008L54.9861 17.0185C54.9575 16.1183 54.9439 15.2172 54.8395 14.321L54.642 13.517L54.5849 13.0864L54 12z"/>
	<path style="fill:#ffffff; stroke:none;"
				d="M56.6034 13.0285C55.6706 13.7596 55.2803 14.9205 55.1481 16.0586C55.0344 17.038 55.0172 18.0161 55.0046 19.0008L55.0046 22L55.0586 23.9954L55.1481 24.9807L55.6034 26.8519L56.6034 28.392L57.3171 28.9529L58.1435 29.338L59.0394 29.534L59.9606 29.534L61.6829 28.9529L62.9722 27.6813L63.3966 26.8519L63.8519 24.9807L63.9414 23.9954L63.9954 22C64.0123 20.6694 64.0135 19.3349 63.9807 18.0046L63.8519 16.0586L63.6821 15.1481L63.3966 14.3179L62.9722 13.6034L62.3966 13.0285L61.6829 12.608L60.8565 12.3372L59.0394 12.2068L58.1435 12.3372L56.6034 13.0285z"/>
	<path style="fill:#000025; stroke:none;"
				d="M64 12L64 29L64.5849 27.9136L64.642 27.483L64.8395 26.679L64.966 24.9414L65 21L64.9992 19.0008L64.9861 17.0185C64.9575 16.1183 64.9439 15.2172 64.8395 14.321L64.642 13.517L64.5849 13.0864L64 12z"/>
	<path style="fill:#c8ced6; stroke:none;"
				d="M65 12L65 30L65.5849 28.9136L65.642 28.483L65.8395 27.679C65.9439 26.7828 65.9575 25.8817 65.9861 24.9815L66 21L65.9861 17.0185C65.9575 16.1183 65.9439 15.2172 65.8395 14.321L65.642 13.517L65.5849 13.0864L65 12z"/>
	<path style="fill:#ffffff; stroke:none;"
				d="M66 12L66 30L68 30L68 20L68.9537 21.6019L69.6343 23.1111L70.8056 25.9769L71.6574 27.7824L72.625 29.1111L73.2963 29.5278L75 30L74.4784 27.841L74.2894 26.8395L74.0903 24.9753C74.0183 23.6504 74.0015 22.3267 74.0015 21C74.0015 19.6733 74.0183 18.3496 74.0903 17.0247L74.2894 15.1605L74.4784 14.159L75 12L72 12L72.5216 14.159L72.7106 15.159L72.9097 17L72.9853 18.841L73 22L71.8696 20.9136L71.0702 19.679C70.2858 18.2098 69.6699 16.6576 68.9699 15.1481L68.0795 13.6103L67.4823 12.9954L67.216 12.6543L66 12z"/>
	<path style="fill:#000040; stroke:none;"
				d="M71 12L70.8326 13.6713L70.7639 14.1574L70.5941 16.0201L70.5887 17.8441L70.6836 18.8426L71 21L71.5849 19.9136L71.642 19.483L71.8387 18.6798L71.9522 16.9599L71.9522 16.0401L71.8387 14.3202L71.642 13.517L71.5849 13.0864L71 12z"/>
	<path style="fill:#000013; stroke:none;"
				d="M75 12L75 30L75.5849 28.9136L75.642 28.483L75.8395 27.679C75.9439 26.7828 75.9575 25.8817 75.9861 24.9815L76 21L75.9861 17.0185C75.9575 16.1183 75.9439 15.2172 75.8395 14.321L75.642 13.517L75.5849 13.0864L75 12z"/>
	<path style="fill:#dfe4e8; stroke:none;"
				d="M76 12L76 30L76.5849 28.9136L76.642 28.483L76.8395 27.679C76.9439 26.7828 76.9575 25.8817 76.9861 24.9815L77 21L76.9861 17.0185C76.9575 16.1183 76.9439 15.2172 76.8395 14.321L76.642 13.517L76.5849 13.0864L76 12z"/>
	<path style="fill:#ffffff; stroke:none;"
				d="M77 12L77 30L85 30L85 28L79 28L79 22L83 22L83 20L79 20L79 14L85 14L85 12L77 12z"/>
	<path style="fill:#a3a8b8; stroke:none;"
				d="M86 12L86 30L86.5849 28.9136L86.642 28.483L86.8395 27.679C86.9439 26.7828 86.9575 25.8817 86.9861 24.9815L87 21L86.9861 17.0185C86.9575 16.1183 86.9439 15.2172 86.8395 14.321L86.642 13.517L86.5849 13.0864L86 12z"/>
	<path style="fill:#ffffff; stroke:none;"
				d="M87 12L87 30L95 30L95 28L89 28L89 22L94 22L94 20L89 20L89 14L95 14L95 12L87 12z"/>
	<path style="fill:#6d738a; stroke:none;"
				d="M95 12C95.3096 13.6679 95.6637 15.3343 95.831 17.0247C95.9941 18.6732 96.0245 20.3451 95.9599 22C95.9209 22.9972 95.8409 23.9854 95.7145 24.9753L95.4252 26.8395L95.2755 27.841L95.1829 28.3287L95 30L96.017 29.3457L96.1636 29.0046L96.5502 28.3897L96.8758 26.8511L96.9823 24.9807L96.9954 23.9954L97 21L96.9954 18.0046L96.9823 17.0193L96.8758 15.1489L96.5502 13.6103L96.1636 12.9954L96.017 12.6543L95 12z"/>
	<path style="fill:#ffffff; stroke:none;"
				d="M97 12L97 30L99 30L99 23L100.389 23.9583L101.361 25.2176C101.865 26.0449 102.256 26.9349 102.713 27.787L103.639 29.1111L104.301 29.5278L106 30L105.485 28.3287C105.17 27.2261 104.903 26.1204 104.8 24.9753C104.711 23.9824 104.761 22.993 104.808 22L104.965 19.0015L104.999 16.0448L105 12L97 12M108 12L108 21L109.65 21.5918L110.998 22.3133L112.331 23.4884L113.108 24.973L113.207 25.8958L113 28L111 28L110.472 26.6111L110.139 26.2778L109.222 25.3611L108 25L108.315 27.0116L108.604 27.8426L109.603 28.9923L111.129 29.625L112 29.7037L112.871 29.6235L113.687 29.3773L114.972 28.3958C115.511 27.7234 115.751 26.8031 115.852 25.966C116.051 24.3211 115.994 22.6529 116 21L114.349 20.4082L112.988 19.6867L111.579 18.5116L110.603 17.027L110.315 16.1042L110 14L111.569 14.5926L111.968 14.8472L112.829 15.294L114.271 16.1528L114.645 16.4074L116 17L115.685 14.9884L115.396 14.1574L114.398 13.0031L112.877 12.3164L111.141 12.0586C110.089 12.0004 109.055 12.0125 108 12z"/>
	<path style="fill:#6a788e; stroke:none;" d="M115 12L116 13L115 12z"/>
	<path style="fill:#828596; stroke:none;"
				d="M125 12L125 116L125.585 114.914L125.642 114.483L125.84 113.679C125.944 112.784 125.964 111.881 125.986 110.981L126 106L126 89L126 36L126 21L125.986 17.0185C125.958 16.1183 125.944 15.2172 125.84 14.321L125.642 13.517L125.585 13.0864L125 12z"/>
	<path style="fill:#834e4f; stroke:none;"
				d="M5 13L5 115L5.58488 113.914L5.64198 113.483L5.83951 112.679C5.94378 111.784 5.96387 110.881 5.98611 109.981L6 105L6 89L6 37L6 22L5.98611 18.0185C5.95753 17.1182 5.94389 16.2172 5.83951 15.321L5.64198 14.517L5.58488 14.0864L5 13z"/>
	<path style="fill:#003469; stroke:none;"
				d="M8 13L8 116L8.58488 114.914L8.64198 114.483L8.83951 113.679C8.94389 112.783 8.95753 111.882 8.98611 110.981L9 107L9 92L9 40L9 23L8.98611 18.0185C8.96387 17.1188 8.94378 16.2162 8.83951 15.321L8.64198 14.517L8.58488 14.0864L8 13z"/>
	<path style="fill:#b3b7c2; stroke:none;" d="M20 13L21 14L20 13z"/>
	<path style="fill:#000045; stroke:none;"
				d="M21 13L21 17L21.5494 15.9753L21.5494 15.6204L21.679 15L21.5494 14.0247L21 13z"/>
	<path style="fill:#646c85; stroke:none;" d="M33 13L34 14L33 13z"/>
	<path style="fill:#acb1bd; stroke:none;" d="M68 13L69 14L68 13z"/>
	<path style="fill:#f0f3f6; stroke:none;"
				d="M72 13L72 22L72.5849 20.9136L72.642 20.483L72.8387 19.6798L72.9522 17.9599L72.9522 17.0401L72.8387 15.3202L72.642 14.517L72.5849 14.0864L72 13z"/>
	<path style="fill:#eef2f4; stroke:none;"
				d="M74 13L74 29L74.5849 27.9136L74.642 27.483L74.8395 26.679L74.966 24.9414L75 21L74.966 17.0586L74.8395 15.321L74.642 14.517L74.5849 14.0864L74 13M105 13L105 22L105.585 20.9136L105.642 20.483L105.839 19.6798L105.952 17.9599L105.952 17.0401L105.839 15.3202L105.642 14.517L105.585 14.0864L105 13z"/>
	<path style="fill:#000012; stroke:none;"
				d="M106 13L106 21L106.585 19.9136L106.641 19.4838L106.836 18.6836L106.932 17L106.836 15.3164L106.641 14.5162L106.585 14.0864L106 13z"/>
	<path style="fill:#b3b7c2; stroke:none;" d="M107 13L108 14L107 13z"/>
	<path style="fill:#003469; stroke:none;"
				d="M119 13L119 116L119.585 114.914L119.642 114.483L119.84 113.679C119.944 112.783 119.958 111.882 119.986 110.981L120 107L120 92L120 40L120 23L119.986 18.0185C119.964 17.1189 119.944 16.2162 119.84 15.321L119.642 14.517L119.585 14.0864L119 13z"/>
	<path style="fill:#824e4f; stroke:none;"
				d="M122 13L122 115L122.585 113.914L122.642 113.483L122.84 112.679C122.944 111.783 122.958 110.882 122.986 109.981L123 106L123 91L123 39L123 23L122.986 18.0185C122.964 17.1189 122.944 16.2162 122.84 15.321L122.642 14.517L122.585 14.0864L122 13z"/>
	<path style="fill:#70748b; stroke:none;"
				d="M15 14L15.909 14.5849L16.3472 14.6528L18 15L17.091 14.4151L16.6528 14.3472L15 14z"/>
	<path style="fill:#e2e6e9; stroke:none;" d="M20 14L20 17L20.5787 16.125L20.5787 15.1991L20.5787 14.875L20 14z"/>
	<path style="fill:#74798f; stroke:none;"
				d="M22 14L22.909 14.5849L23.3472 14.6528L25 15L24.091 14.4151L23.6528 14.3472L22 14z"/>
	<path style="fill:#cfd5db; stroke:none;"
				d="M27 14L27 30L27.5849 28.9136L27.642 28.483L27.8395 27.679L27.966 25.9414L28 22L27.966 18.0586L27.8395 16.321L27.642 15.517L27.5849 15.0864L27 14z"/>
	<path style="fill:#767a8f; stroke:none;"
				d="M28 14L28.909 14.5849L29.3472 14.6528L31 15L30.091 14.4151L29.6528 14.3472L28 14z"/>
	<path style="fill:#9a9eae; stroke:none;" d="M33 14L34 15L33 14z"/>
	<path style="fill:#5e6881; stroke:none;" d="M38 14L39 15L38 14z"/>
	<path style="fill:#75798f; stroke:none;"
				d="M41 14L41.909 14.5849L42.3472 14.6528L44 15L43.091 14.4151L42.6528 14.3472L41 14z"/>
	<path style="fill:#dbe0e5; stroke:none;"
				d="M46 14L46 30L46.5849 28.9136L46.642 28.483L46.8395 27.679L46.966 25.9414L47 22L46.966 18.0586L46.8395 16.321L46.642 15.517L46.5849 15.0864L46 14z"/>
	<path style="fill:#757a8f; stroke:none;"
				d="M47 14L47.909 14.5849L48.3472 14.6528L50 15L49.091 14.4151L48.6528 14.3472L47 14z"/>
	<path style="fill:#000047; stroke:none;"
				d="M50 14L50 30L50.5849 28.9136L50.642 28.483L50.8395 27.679L50.966 25.9414L51 22L50.966 18.0586L50.8395 16.321L50.642 15.517L50.5849 15.0864L50 14z"/>
	<path style="fill:#505d7b; stroke:none;"
				d="M58 14L58.909 14.5849L59.3472 14.6528L61 15L60.091 14.4151L59.6528 14.3472L58 14z"/>
	<path style="fill:#00003c; stroke:none;" d="M69 14L70 15L69 14z"/>
	<path style="fill:#7e8294; stroke:none;"
				d="M79 14L80.0818 14.5849L80.4923 14.642L81.2762 14.8395C81.962 14.9258 82.6575 14.9629 83.348 14.9853L85 15L83.9182 14.4151L83.5077 14.358L82.7238 14.1605C82.0379 14.0742 81.3426 14.0371 80.652 14.0147L79 14M89 14L90.0818 14.5849L90.4923 14.642L91.2762 14.8395C91.9621 14.9258 92.6574 14.9629 93.348 14.9853L95 15L93.9182 14.4151L93.5077 14.358L92.7238 14.1605C92.0379 14.0742 91.3426 14.0371 90.652 14.0147L89 14z"/>
	<path style="fill:#08385f; stroke:none;"
				d="M95 14L93.3549 14.5849L92.8858 14.642L92 14.8395L90.6451 14.9645L89 15L89 19L90.6451 19.0988L92 19.2901L93.3549 19.5679L95 20L95 22L93.375 22.4329L92 22.7207L91.625 22.8079L90 23L90 26L91.6451 26.0988L93 26.2901L94.3549 26.5679L96 27L95.9969 20.0031C95.9822 18.7753 95.9818 17.5428 95.8395 16.321L95.642 15.517L95.5849 15.0864L95 14z"/>
	<path style="fill:#8b8e9f; stroke:none;"
				d="M99 14L99 21L99.5841 19.9144L99.6389 19.4877L99.8256 18.6975L99.8727 17.0795L99.8256 16.3025L99.6389 15.5123L99.5841 15.0856L99 14z"/>
	<path style="fill:#71768c; stroke:none;"
				d="M100 14L100.909 14.5849L101.347 14.6528L103 15L102.091 14.4151L101.653 14.3472L100 14z"/>
	<path style="fill:#e3e7eb; stroke:none;"
				d="M107 14L107 21L107.584 19.9144L107.639 19.4877L107.826 18.6975L107.873 17.0795L107.826 16.3025L107.639 15.5123L107.584 15.0856L107 14z"/>
	<path style="fill:#9ea5ad; stroke:none;" d="M110 14L111 15L110 14z"/>
	<path style="fill:#747885; stroke:none;"
				d="M111.667 14.3333L112 14.6667L112.333 14.6667L112.333 14.3333L111.667 14.3333z"/>
	<path style="fill:#a9b4c0; stroke:none;"
				d="M14 15L14 19L14.5494 17.9753L14.5494 17.6204L14.679 17L14.5494 16.0247L14 15z"/>
	<path style="fill:#00315b; stroke:none;"
				d="M15 15L15 19L16.6451 19.3966L18 19.5494L18.8858 19.466L19.3549 19.4861L21 19L19.9568 18.0926L19.5764 17.8264L18.8727 17.2801L17.5208 16.3264L16.7353 15.8619L16.3549 15.5957L15 15z"/>
	<path style="fill:#000041; stroke:none;"
				d="M17.3333 15.6667L17.3333 16L17.6667 16.3333L17.6667 15.6667L17.3333 15.6667z"/>
	<path style="fill:#000045; stroke:none;"
				d="M24 15L24 30L24.5849 28.9136L24.642 28.483L24.8395 27.679L24.966 25.9414L24.9992 22.0008L24.966 19.0586L24.8395 17.321L24.642 16.517L24.5849 16.0864L24 15z"/>
	<path style="fill:#00124b; stroke:none;"
				d="M28 15L28.0008 22.9992C28.009 24.2861 28.0091 25.5681 28.1242 26.8511L28.4498 28.3897L28.8364 29.0046L28.983 29.3457L30 30L29.5679 28.3287L29.2894 26.8395C29.1632 25.8922 29.0841 24.95 29.0401 23.9954L28.9977 21.0046L28.966 19.0586L28.8395 17.321L28.642 16.517L28.5849 16.0864L28 15z"/>
	<path style="fill:#00003b; stroke:none;"
				d="M32.3333 15.6667L32.3333 16.3333L32.6667 16.3333L32.6667 16L32.3333 15.6667z"/>
	<path style="fill:#898b95; stroke:none;"
				d="M35 15L35.3472 17L35.4151 17.5062L36 19L36.3673 17.9753L36.2593 17L35.9552 16.3796L35.8611 16.0247L35 15z"/>
	<path style="fill:#979bab; stroke:none;" d="M38 15L39 16L38 15z"/>
	<path style="fill:#00003f; stroke:none;"
				d="M43 15L43 30L43.5849 28.9136L43.642 28.483L43.8395 27.679L43.966 25.9414L43.9992 22.9992L43.966 19.0586L43.8395 17.321L43.642 16.517L43.5849 16.0864L43 15z"/>
	<path style="fill:#000047; stroke:none;"
				d="M47 15L47 30L47.5849 28.9136L47.642 28.483L47.8395 27.679L47.966 25.9414L47.9992 22.9992L47.966 19.0586L47.8395 17.321L47.642 16.517L47.5849 16.0864L47 15z"/>
	<path style="fill:#c7ced5; stroke:none;"
				d="M57 15L57 27L57.5849 25.9136L57.642 25.483L57.8395 24.679C57.9815 23.4603 57.9938 22.2252 57.9938 21C57.9938 19.7748 57.9815 18.5397 57.8395 17.321L57.642 16.517L57.5849 16.0864L57 15z"/>
	<path style="fill:#002754; stroke:none;"
				d="M58 15L58 27L61 27L61 15L60.4151 16.0864L60.358 16.517L60.1605 17.321C60.019 18.5351 60.0181 19.7598 60.0031 20.9799L60 26L59.4151 24.3287L59.1605 22.8395C59.034 21.5815 59.0204 20.319 58.9691 19.0571L58.8395 17.321L58.642 16.517L58.5849 16.0864L58 15z"/>
	<path style="fill:#193e63; stroke:none;"
				d="M59 15L59 26L59.5849 24.9136L59.642 24.483L59.8395 23.679L59.9066 22.8619L59.9653 21.9421L59.983 20.0139C59.9716 19.1166 59.9433 18.2133 59.8395 17.321L59.642 16.517L59.5849 16.0864L59 15z"/>
	<path style="fill:#afb8c4; stroke:none;"
				d="M61 15L61 27L61.5849 25.9136L61.642 25.483L61.8395 24.679C61.9815 23.4603 61.9938 22.2252 61.9938 21C61.9938 19.7748 61.9815 18.5397 61.8395 17.321L61.642 16.517L61.5849 16.0864L61 15z"/>
	<path style="fill:#636c83; stroke:none;" d="M69 15L70 16L69 15z"/>
	<path style="fill:#00003f; stroke:none;"
				d="M79 15L79 19L79.5494 17.9753L79.679 17L79.5494 16.3796L79.5494 16.0247L79 15z"/>
	<path style="fill:#193e63; stroke:none;" d="M100 15L100 20L102 20L102 15L100 15z"/>
	<path style="fill:#000040; stroke:none;"
				d="M102 15L101.866 16.6096L101.549 17.8395L101.164 18.5278L101.017 18.9398L100 20L100.87 20.5556L101.745 20.412L102.542 19.5139L102.773 18.8009L102.866 17.1991L102.685 16.4167L102.644 15.9583L102 15z"/>
	<path style="fill:#000041; stroke:none;"
				d="M110 15L110 19L110.549 17.9753L110.679 17L110.549 16.3796L110.549 16.0247L110 15z"/>
	<path style="fill:#b0bbc5; stroke:none;"
				d="M113.333 15.6667L113.333 16.3333L113.667 16.3333L113.667 15.6667L113.333 15.6667z"/>
	<path style="fill:#c9d0d8; stroke:none;" d="M36 16L37 17L36 16z"/>
	<path style="fill:#cad1d8; stroke:none;" d="M38 16L39 17L38 16z"/>
	<path style="fill:#00003d; stroke:none;"
				d="M39.3333 16.6667L39.3333 17.3333L39.6667 17.3333L39.6667 16.6667L39.3333 16.6667z"/>
	<path style="fill:#bdc4ce; stroke:none;" d="M69 16L70 17L69 16z"/>
	<path style="fill:#183d62; stroke:none;"
				d="M80 16L80 18L81.625 18.1921L82 18.2793L83.375 18.5671L85 19L84.8889 17.6111L84.2778 16.6667L82.9444 16.1111L81.5 16L80 16z"/>
	<path style="fill:#9698a8; stroke:none;"
				d="M18 17L18.909 17.5849L19.3472 17.6528L21 18L20.091 17.4151L19.6528 17.3472L18 17z"/>
	<path style="fill:#9798a9; stroke:none;"
				d="M113 17L113.909 17.5849L114.347 17.6528L116 18L115.091 17.4151L114.653 17.3472L113 17z"/>
	<path style="fill:#7c7f92; stroke:none;" d="M32 18L33 19L32 18z"/>
	<path style="fill:#000041; stroke:none;"
				d="M35 18L35.3472 20L35.4151 20.5062L36 22L36.3673 20.9753L36.2593 20L35.9552 19.3796L35.8611 19.0247L35 18z"/>
	<path style="fill:#7a7e93; stroke:none;" d="M70 18L71 19L70 18z"/>
	<path style="fill:#00315a; stroke:none;"
				d="M80 18L81.0401 18.5849L81.3588 18.6412L82.4776 18.8974L84 19L82.9599 18.4151L82.6412 18.3588L81.5224 18.1026L80 18z"/>
	<path style="fill:#969aa9; stroke:none;" d="M16 19L17 20L16 19z"/>
	<path style="fill:#aaaebc; stroke:none;" d="M32 19L33 20L32 19z"/>
	<path style="fill:#2d4a6c; stroke:none;" d="M36 19L37 20L36 19z"/>
	<path style="fill:#797d92; stroke:none;" d="M39 19L40 20L39 19z"/>
	<path style="fill:#9b9caf; stroke:none;"
				d="M79 19L80.0602 19.5849L80.4722 19.642L81.1605 19.8395L82.3904 19.9645L84 20L82.9398 19.4151L82.5278 19.358L81.8395 19.1605L80.6096 19.0355L79 19z"/>
	<path style="fill:#9b9cae; stroke:none;"
				d="M89 19L90.0602 19.5849L90.4722 19.642L91.1605 19.8395L92.3904 19.9645L94 20L92.9398 19.4151L92.5278 19.358L91.8395 19.1605L90.6096 19.0355L89 19z"/>
	<path style="fill:#aeb2bf; stroke:none;" d="M111 19L112 20L111 19z"/>
	<path style="fill:#59657e; stroke:none;" d="M112 19L113 20L112 19z"/>
	<path style="fill:#979dab; stroke:none;" d="M19 20L20 21L19 20z"/>
	<path style="fill:#000041; stroke:none;"
				d="M31.3333 20.6667L31.3333 21L31.6667 21.3333L31.6667 20.6667L31.3333 20.6667z"/>
	<path style="fill:#a7acbb; stroke:none;" d="M39 20L40 21L39 20z"/>
	<path style="fill:#00001c; stroke:none;"
				d="M68.3333 20.6667L68.3333 21L68.6667 21.3333L68.6667 20.6667L68.3333 20.6667z"/>
	<path style="fill:#e1e5e8; stroke:none;"
				d="M83.3333 20.6667L83.3333 21L83.6667 21.3333L83.6667 20.6667L83.3333 20.6667z"/>
	<path style="fill:#000648; stroke:none;"
				d="M84.3333 20.6667L84.3333 21L84.6667 21.3333L84.6667 20.6667L84.3333 20.6667z"/>
	<path style="fill:#00003f; stroke:none;"
				d="M94.3333 20.6667L94.3333 21L94.6667 21.3333L94.6667 20.6667L94.3333 20.6667z"/>
	<path style="fill:#b5b8c4; stroke:none;" d="M114 20L115 21L114 20z"/>
	<path style="fill:#5b677e; stroke:none;" d="M115 20L116 21L115 20z"/>
	<path style="fill:#8a8b9d; stroke:none;" d="M13 21L14 22L13 21z"/>
	<path style="fill:#e2e6e9; stroke:none;"
				d="M20 21L20 28L20.5841 26.9144L20.6389 26.4877L20.8256 25.6975L20.8727 24.9205L20.8256 23.3025L20.6389 22.5123L20.5841 22.0856L20 21z"/>
	<path style="fill:#000046; stroke:none;"
				d="M21 21L21 28L21.5841 26.9144L21.6389 26.4877L21.8256 25.6975L21.8727 24.0795L21.8256 23.3025L21.6389 22.5123L21.5841 22.0856L21 21z"/>
	<path style="fill:#838597; stroke:none;"
				d="M34.3333 21.6667L34.3333 22.3333L34.6667 22.3333L34.6667 22L34.3333 21.6667z"/>
	<path style="fill:#04385f; stroke:none;" d="M35 21L35 23L37 23L37 22L35 21z"/>
	<path style="fill:#000043; stroke:none;"
				d="M40.3333 21.6667L40.3333 22.3333L40.6667 22.3333L40.6667 22L40.3333 21.6667z"/>
	<path style="fill:#7a7e84; stroke:none;" d="M71 21L72 22L71 21z"/>
	<path style="fill:#000048; stroke:none;"
				d="M106.667 21.3333L106.667 21.6667L107.333 21.6667L107.333 21.3333L106.667 21.3333z"/>
	<path style="fill:#676f85; stroke:none;" d="M108 21L109 22L108 21z"/>
	<path style="fill:#babec9; stroke:none;" d="M109 21L110 22L109 21z"/>
	<path style="fill:#000949; stroke:none;"
				d="M12 23L13.0401 23.4823L13.3588 23.4823L14.4776 23.4823L16 23L14.9599 22.6073L14.6412 22.6381L13.5224 22.6698L12 23z"/>
	<path style="fill:#888a9b; stroke:none;" d="M16 22L17 23L16 22z"/>
	<path style="fill:#b2bcc7; stroke:none;" d="M37 22L38 23L37 22z"/>
	<path style="fill:#00044a; stroke:none;"
				d="M68 22L68 30L68.6258 28.9136L68.7261 28.4838L68.9915 27.6836L69.2662 26L69.2608 24.3164L68.9954 23.5162L68.919 23.0864L68 22z"/>
	<path style="fill:#8e91a2; stroke:none;" d="M69 22L70 23L69 22z"/>
	<path style="fill:#00003e; stroke:none;"
				d="M79 22L79 27L79.5702 25.9329L79.608 25.5417L79.7461 24.8171L79.608 23.4583L79.5702 23.0671L79 22z"/>
	<path style="fill:#183d62; stroke:none;" d="M80 22L80 26L85 26L85 22L80 22z"/>
	<path style="fill:#2c466a; stroke:none;"
				d="M89 22L90.0602 22.5849L90.4722 22.642L91.1605 22.8395L92.3904 22.9645L94 23L92.9398 22.4151L92.5278 22.358L91.8395 22.1605L90.6096 22.0355L89 22z"/>
	<path style="fill:#7b8197; stroke:none;" d="M105 22L106 23L105 22z"/>
	<path style="fill:#193f63; stroke:none;"
				d="M105 26L106.148 25.125L107.255 24.1991L107.565 23.875L109 23L107.975 22.5733L106.997 22.74L105.971 23.4776L105.338 24.4915L105 26z"/>
	<path style="fill:#000949; stroke:none;"
				d="M107 23L108.04 23.4823L108.359 23.4823L109.478 23.4823L111 23L109.96 22.6073L109.641 22.6381L108.522 22.6698L107 23z"/>
	<path style="fill:#636c83; stroke:none;" d="M111 22L112 23L111 22z"/>
	<path style="fill:#b5b8c5; stroke:none;" d="M112 22L113 23L112 22z"/>
	<path style="fill:#002a57; stroke:none;" d="M15 23L15 27L17 27L17 23L15 23z"/>
	<path style="fill:#000042; stroke:none;"
				d="M17 23L17 27L17.5494 25.9753L17.5494 25.6204L17.679 25L17.5494 24.0247L17 23z"/>
	<path style="fill:#001751; stroke:none;"
				d="M30 23L30 27L30.5494 25.9753L30.5494 25.6204L30.679 25L30.5494 24.0247L30 23z"/>
	<path style="fill:#9091a1; stroke:none;" d="M31 23L32 24L31 23z"/>
	<path style="fill:#000045; stroke:none;"
				d="M34 23L34.909 23.5849L35.3472 23.6528L37 24L36.091 23.4151L35.6528 23.3472L34 23z"/>
	<path style="fill:#7e818f; stroke:none;" d="M37 23L38 24L37 23z"/>
	<path style="fill:#002252; stroke:none;"
				d="M89 23L89 27L95 27L93.9329 26.3542L93.5386 26.2153L92.1458 25.5486L91.4506 25.1443C90.5059 24.5833 89.781 23.7534 89 23z"/>
	<path style="fill:#c9cfd7; stroke:none;"
				d="M99.6667 23.3333L99.6667 23.6667L100.333 23.6667L100.333 23.3333L99.6667 23.3333z"/>
	<path style="fill:#7c7f94; stroke:none;"
				d="M104.333 23.6667L104.333 24.3333L104.667 24.3333L104.667 23.6667L104.333 23.6667z"/>
	<path style="fill:#1a3f63; stroke:none;"
				d="M110 23L110.542 25L110.685 25.5062L111 27L111.528 25.9753L111.519 25.6312L111.457 24.4722L111.13 23.9367L111.002 23.635L110 23z"/>
	<path style="fill:#002955; stroke:none;"
				d="M112 23L112 27L112.549 25.9753L112.549 25.6204L112.679 25L112.549 24.0247L112 23z"/>
	<path style="fill:#acb6c2; stroke:none;"
				d="M113 23L113 27L113.549 25.9753L113.549 25.6204L113.679 25L113.549 24.0247L113 23z"/>
	<path style="fill:#dadee3; stroke:none;"
				d="M12.6667 24.3333L12.6667 24.6667L13.3333 24.6667L13 24.3333L12.6667 24.3333z"/>
	<path style="fill:#a9b5c1; stroke:none;" d="M14 24L14 27L14.5787 26.125L14.5787 25.8009L14.5787 24.875L14 24z"/>
	<path style="fill:#bac3cc; stroke:none;" d="M31 24L32 25L31 24z"/>
	<path style="fill:#8d8fa1; stroke:none;" d="M40 24L41 25L40 24z"/>
	<path style="fill:#8b8e9f; stroke:none;"
				d="M99 24L99 30L99.5818 28.9182L99.6281 28.5015L99.8056 27.7377L99.8056 26.2623L99.6281 25.4985L99.5818 25.0818L99 24z"/>
	<path style="fill:#00355d; stroke:none;"
				d="M100 24L100 30L100.998 28.9182L101.11 28.5015L101.426 27.7377L101.426 26.2623L100.998 25.0818L100 24z"/>
	<path style="fill:#717686; stroke:none;" d="M101 24L102 25L101 24z"/>
	<path style="fill:#000045; stroke:none;"
				d="M106 24L105.769 25.6512L105.839 27.0116L106.254 28.4144L106.9 29.3472L108 30L107.553 28.348L107.196 26.9776L107.018 26.2762L106.731 25.4923L106.627 25.0818L106 24z"/>
	<path style="fill:#e3e7eb; stroke:none;"
				d="M107 24L107 28L107.856 27.125L108.653 26.1991L108.856 25.875L110 25L109.091 24.4151L108.653 24.3472L107 24z"/>
	<path style="fill:#000040; stroke:none;" d="M110 24L110 27L110.579 26.125L110.579 25.8009L110.579 24.875L110 24z"/>
	<path style="fill:#bbc3cc; stroke:none;" d="M40 25L41 26L40 25z"/>
	<path style="fill:#7c7e92; stroke:none;" d="M70 25L71 26L70 25z"/>
	<path style="fill:#bac3cc; stroke:none;" d="M104 25L105 26L104 25z"/>
	<path style="fill:#b5b9c2; stroke:none;" d="M33 26L34 27L33 26z"/>
	<path style="fill:#4f5c7a; stroke:none;"
				d="M34 26L35.0401 26.5849L35.3588 26.6412L36.4776 26.8974L38 27L36.9599 26.4151L36.6412 26.3588L35.5224 26.1026L34 26z"/>
	<path style="fill:#001751; stroke:none;"
				d="M41.3333 26.6667L41.3333 27.3333L41.6667 27.3333L41.6667 27L41.3333 26.6667z"/>
	<path style="fill:#001d50; stroke:none;"
				d="M70.3333 26.6667L70.3333 27.3333L70.6667 27.3333L70.6667 26.6667L70.3333 26.6667z"/>
	<path style="fill:#b6bec8; stroke:none;"
				d="M15.6667 27.3333L15.6667 27.6667L16.3333 27.6667L16.3333 27.3333L15.6667 27.3333z"/>
	<path style="fill:#9ba1af; stroke:none;"
				d="M30.3333 27.6667L30.3333 28L30.6667 28.3333L30.6667 27.6667L30.3333 27.6667z"/>
	<path style="fill:#818395; stroke:none;" d="M33 27L34 28L33 27z"/>
	<path style="fill:#8a8c9d; stroke:none;"
				d="M38.3333 27.6667L38.3333 28.3333L38.6667 28.3333L38.6667 28L38.3333 27.6667z"/>
	<path style="fill:#9fa9b7; stroke:none;"
				d="M58 27L58.909 27.5849L59.3472 27.6528L61 28L60.091 27.4151L59.6528 27.3472L58 27z"/>
	<path style="fill:#bec4ce; stroke:none;" d="M71 27L72 28L71 27z"/>
	<path style="fill:#b9c2cb; stroke:none;"
				d="M79 27L80.0818 27.5849L80.4923 27.642L81.2762 27.8395C81.962 27.9258 82.6575 27.9629 83.348 27.9853L85 28L83.9182 27.4151L83.5077 27.358L82.7238 27.1605C82.0379 27.0742 81.3426 27.0371 80.652 27.0147L79 27M89 27L90.0818 27.5849L90.4923 27.642L91.2762 27.8395C91.9621 27.9258 92.6574 27.9629 93.348 27.9853L95 28L93.9182 27.4151L93.5077 27.358L92.7238 27.1605C92.0379 27.0742 91.3426 27.0371 90.652 27.0147L89 27z"/>
	<path style="fill:#a3a9b6; stroke:none;" d="M102 27L103 28L102 27z"/>
	<path style="fill:#2c486b; stroke:none;" d="M105 27L106 28L105 27z"/>
	<path style="fill:#bcc3cc; stroke:none;"
				d="M111.667 27.3333L111.667 27.6667L112.333 27.6667L112.333 27.3333L111.667 27.3333z"/>
	<path style="fill:#9098a7; stroke:none;" d="M20 28L21 29L20 28z"/>
	<path style="fill:#686f87; stroke:none;" d="M41 28L42 29L41 28z"/>
	<path style="fill:#c3c7d1; stroke:none;" d="M55 28L56 29L55 28z"/>
	<path style="fill:#c5c7d0; stroke:none;" d="M63 28L64 29L63 28z"/>
	<path style="fill:#636d84; stroke:none;" d="M71 28L72 29L71 28z"/>
	<path style="fill:#646d84; stroke:none;" d="M102 28L103 29L102 28z"/>
	<path style="fill:#8e8fa0; stroke:none;" d="M105 28L106 29L105 28z"/>
	<path style="fill:#8f96a7; stroke:none;" d="M107 28L108 29L107 28z"/>
	<path style="fill:#adb2bd; stroke:none;" d="M19 29L20 30L19 29z"/>
	<path style="fill:#a6adb9; stroke:none;" d="M41 29L42 30L41 29z"/>
	<path style="fill:#002151; stroke:none;"
				d="M54.6667 29.3333L54.6667 29.6667L55.3333 29.6667L55 29.3333L54.6667 29.3333z"/>
	<path style="fill:#c5cbd4; stroke:none;" d="M56 29L57 30L56 29z"/>
	<path style="fill:#c4cbd3; stroke:none;" d="M62 29L63 30L62 29z"/>
	<path style="fill:#001b4f; stroke:none;"
				d="M63.6667 29.3333L64 29.6667L64.3333 29.6667L64.3333 29.3333L63.6667 29.3333z"/>
	<path style="fill:#00003d; stroke:none;" d="M71 29L72 30L71 29z"/>
	<path style="fill:#abb0bb; stroke:none;" d="M108 29L109 30L108 29z"/>
	<path style="fill:#000046; stroke:none;"
				d="M13 30L14.0818 30.5849L14.4923 30.642L15.2762 30.8395C15.9621 30.9258 16.6575 30.9629 17.348 30.9853L19 31L17.9182 30.4151L17.5077 30.358L16.7238 30.1605C16.0379 30.0742 15.3426 30.0371 14.652 30.0147L13 30M25 30L25.909 30.5849L26.3472 30.6528L28 31L27.091 30.4151L26.6528 30.3472L25 30M30 30L30.909 30.5849L31.3472 30.6528L33 31L32.091 30.4151L31.6528 30.3472L30 30z"/>
	<path style="fill:#000045; stroke:none;"
				d="M39.6667 30.3333L39.6667 30.6667L40.3333 30.6667L40 30.3333L39.6667 30.3333z"/>
	<path style="fill:#000046; stroke:none;"
				d="M44 30L44.909 30.5849L45.3472 30.6528L47 31L46.091 30.4151L45.6528 30.3472L44 30M51 30L51.909 30.5849L52.3472 30.6528L54 31L53.091 30.4151L52.6528 30.3472L51 30M56 30L57.0849 30.5849L57.5123 30.642L58.2963 30.8395L59.8981 30.966L63 31L61.9151 30.4151L61.4877 30.358L60.7037 30.1605L59.1019 30.034L56 30M65 30L65.909 30.5849L66.3472 30.6528L68 31L67.091 30.4151L66.6528 30.3472L65 30M72 30L72.909 30.5849L73.3472 30.6528L75 31L74.091 30.4151L73.6528 30.3472L72 30M76 30L77.0864 30.5849L77.517 30.642L78.3194 30.8395C79.2012 30.9431 80.088 30.9568 80.9738 30.9861L82.8418 30.9992L85 31L83.9136 30.4151L83.483 30.358L82.6806 30.1605C81.7987 30.0569 80.9121 30.0432 80.0262 30.0139L78.1582 30.0008L76 30M87 30L88.0864 30.5849L88.5154 30.642L89.3164 30.8395L91.0139 30.966L95 31L93.9136 30.4151L93.4846 30.358L92.6836 30.1605L90.9861 30.034L87 30z"/>
	<path style="fill:#000045; stroke:none;"
				d="M97.6667 30.3333L97.6667 30.6667L98.3333 30.6667L98.3333 30.3333L97.6667 30.3333z"/>
	<path style="fill:#000046; stroke:none;"
				d="M103 30L103.909 30.5849L104.347 30.6528L106 31L105.091 30.4151L104.653 30.3472L103 30M109 30L110.082 30.5849L110.492 30.642L111.276 30.8395C111.962 30.9258 112.657 30.9629 113.348 30.9853L115 31L113.918 30.4151L113.508 30.358L112.724 30.1605C112.038 30.0742 111.343 30.0371 110.652 30.0147L109 30z"/>
	<path style="fill:#000a49; stroke:none;"
				d="M64 35L65.0602 35.5849L65.4722 35.642L66.1605 35.8395L67.3904 35.9645L69 36L67.9398 35.4151L67.5278 35.358L66.8395 35.1605L65.6096 35.0355L64 35z"/>
	<path style="fill:#000040; stroke:none;"
				d="M58.6667 36.3333L59 36.6667L59.3333 36.6667L59.3333 36.3333L58.6667 36.3333z"/>
	<path style="fill:#9a9fb0; stroke:none;"
				d="M61.6667 36.3333L62 36.6667L62.3333 36.6667L62.3333 36.3333L61.6667 36.3333z"/>
	<path style="fill:#d9dfe4; stroke:none;"
				d="M63 36L64.0818 36.5849L64.4923 36.642L65.2762 36.8395C65.9621 36.9258 66.6574 36.9629 67.348 36.9853L69 37L67.9182 36.4151L67.5077 36.358L66.7238 36.1605C66.0379 36.0742 65.3426 36.0371 64.652 36.0147L63 36z"/>
	<path style="fill:#9ba1b2; stroke:none;"
				d="M69 36L69.909 36.5849L70.3472 36.6528L72 37L71.091 36.4151L70.6528 36.3472L69 36z"/>
	<path style="fill:#000947; stroke:none;"
				d="M73.6667 36.3333L73.6667 36.6667L74.3333 36.6667L74.3333 36.3333L73.6667 36.3333z"/>
	<path style="fill:#9396a5; stroke:none;" d="M57 37L58 38L57 37z"/>
	<path style="fill:#ffffff; stroke:none;"
				d="M35 72L36.6713 72.3156L43 73.5756L47 74.25L50 74.804L54 75.6466C55.3131 75.9327 56.6318 76.2577 57.9753 76.3673C59.0974 76.4588 60.213 76.4086 61.3287 76.2701L63 76L61.9144 75.4514L61.4877 75.3781L60.6983 75.1289L59.0895 74.5818L57.5988 73.5201L57.027 72.7878L56.3179 71.1265L56.1474 70.1505L56 68L57.5 68.1296L58.5185 67.5185L58.8333 66.8333L59.1296 66.5L59 65L60.6698 65.0617L62.1265 65.3179L63.787 66.0262L65.1127 67.2932L65.821 68.8981L65.9606 69.8603L66 72L66.7492 70.9136L67.1512 69.679L67.3333 67.9414C67.347 66.9598 67.2938 65.9802 67.3573 64.9992L67.7199 63L68.0517 62L68.8526 60L69.6535 58L71.2029 54L73.5756 48L74.6806 45.0015L76.0926 41.1605L76.4128 40.159L76.5864 39.6713L77 38L75.3287 37.5679L74.841 37.4784L72.9552 37.1782L71.9753 37.0903L70.9954 37.0401L66 37C63.9965 37.0024 61.996 36.9867 60 37.1852C58.9868 37.2859 57.9779 37.5107 57 37.7886C55.2705 38.2801 53.5975 39.0018 52 39.821C48.8375 41.4427 45.8673 43.5376 43.4676 46.1736C42.6588 47.0621 41.8946 48.0197 41.2207 49.0147L40.5486 50.0039L39.3488 52C38.6339 53.287 38.0009 54.6277 37.4676 56C36.7124 57.9433 36.2162 59.9592 35.8079 62C35.4784 63.647 35.2106 65.2989 35.0895 66.9753C34.9689 68.6454 35.0046 70.3271 35 72z"/>
	<path style="fill:#969ba9; stroke:none;" d="M75 37L76 38L75 37z"/>
	<path style="fill:#00003f; stroke:none;" d="M53 38L54 39L53 38z"/>
	<path style="fill:#828599; stroke:none;" d="M54 38L55 39L54 38z"/>
	<path style="fill:#989eac; stroke:none;" d="M52 39L53 40L52 39z"/>
	<path style="fill:#592730; stroke:none;" d="M77 39L78 40L77 39z"/>
	<path style="fill:#00003c; stroke:none;" d="M49 40L50 41L49 40z"/>
	<path style="fill:#81889b; stroke:none;" d="M50 40L51 41L50 40z"/>
	<path style="fill:#7d89a2; stroke:none;" d="M76 40L77 41L76 40z"/>
	<path style="fill:#ff7500; stroke:none;"
				d="M77.6667 40.3333L77.6667 40.6667L78.3333 40.6667L78.3333 40.3333L77.6667 40.3333z"/>
	<path style="fill:#8f524a; stroke:none;" d="M79 40L80 41L79 40z"/>
	<path style="fill:#001c50; stroke:none;"
				d="M76.3333 41.6667L76.3333 42.3333L76.6667 42.3333L76.6667 41.6667L76.3333 41.6667z"/>
	<path style="fill:#183d62; stroke:none;"
				d="M77 41L76.1543 42.6713L74.936 45.0448C74.3123 46.3374 73.7431 47.6548 73.2423 49C72.6302 50.6441 72.1523 52.3339 71.6057 54L70.8025 56C70.3503 57.021 69.8111 58.0036 69.3086 59L68.3673 61C67.9587 61.9428 67.6228 62.971 67.5332 64L67.6312 66L67.8688 67L68.4591 69L68.7461 71C68.809 72.674 68.1818 74.3224 68.4421 76L69.0424 78L69.5934 79L71.0586 80.9992L72.7338 82.9846C74.0558 84.5095 75.382 86.0987 77.0895 87.2114L79.01 88.1821L79.9792 88.5177L81.8395 89.0417L83.3287 89.4668L85 90L86.9761 87.841L87.831 86.8395L89.2361 84.9753L90.5332 82.9985C91.1303 82.0234 91.6617 81.0186 92.179 80L93.0664 78L93.74 76L94.1497 74L94.2747 72C94.2867 70.665 94.126 69.3345 94.1103 68L94.1443 66L94.2747 63C94.2832 61.994 94.1822 60.9859 93.983 60C93.6312 58.2584 92.9517 56.6035 92.2037 55C91.3959 53.2685 90.486 51.554 89.3627 50.0039L87.787 48.0401L85.9568 46.1852L83.9977 44.5332L82.0247 43.1489L80.1605 42.0957L78.6713 41.456L77 41z"/>
	<path style="fill:#ff7700; stroke:none;"
				d="M79.6667 41.3333L79.6667 41.6667L80.3333 41.6667L80.3333 41.3333L79.6667 41.3333z"/>
	<path style="fill:#754c52; stroke:none;" d="M81 41L82 42L81 41z"/>
	<path style="fill:#7c8598; stroke:none;" d="M47 42L48 43L47 42z"/>
	<path style="fill:#c0c3cd; stroke:none;" d="M75 42L76 43L75 42z"/>
	<path style="fill:#df6b1e; stroke:none;"
				d="M81.6667 42.3333L82 42.6667L82.3333 42.6667L82.3333 42.3333L81.6667 42.3333z"/>
	<path style="fill:#00003f; stroke:none;" d="M45 43L46 44L45 43z"/>
	<path style="fill:#bcc0c7; stroke:none;" d="M46 43L47 44L46 43z"/>
	<path style="fill:#5a667e; stroke:none;" d="M75 43L76 44L75 43z"/>
	<path style="fill:#9d5645; stroke:none;" d="M82 43L83 44L82 43z"/>
	<path style="fill:#ff7b00; stroke:none;" d="M83 43L84 44L83 43z"/>
	<path style="fill:#694a55; stroke:none;" d="M84 43L85 44L84 43z"/>
	<path style="fill:#ff7700; stroke:none;" d="M84 44L85 45L84 44z"/>
	<path style="fill:#d76825; stroke:none;"
				d="M85 44L85.6497 45.652L86.5656 47.0224L87.9892 48.5077L88.3904 48.9182L90 50L89.3503 48.348L88.4344 46.9776L87.0108 45.4923L86.6096 45.0818L85 44z"/>
	<path style="fill:#99a0ad; stroke:none;" d="M74 45L75 46L74 45z"/>
	<path style="fill:#00003f; stroke:none;" d="M42 46L43 47L42 46z"/>
	<path style="fill:#00003e; stroke:none;" d="M41 47L42 48L41 47z"/>
	<path style="fill:#cbcdd3; stroke:none;" d="M42 47L43 48L42 47z"/>
	<path style="fill:#989eab; stroke:none;" d="M41 48L42 49L41 48z"/>
	<path style="fill:#7a7e92; stroke:none;" d="M73 48L74 49L73 48z"/>
	<path style="fill:#000040; stroke:none;" d="M39 50L40 51L39 50z"/>
	<path style="fill:#b3b6c1; stroke:none;" d="M72 50L73 51L72 50z"/>
	<path style="fill:#ff7900; stroke:none;" d="M90 50L91 51L90 50z"/>
	<path style="fill:#a9aeb7; stroke:none;" d="M39 51L40 52L39 51z"/>
	<path style="fill:#d16629; stroke:none;" d="M90 51L90 52L92 53L92 51L90 51z"/>
	<path style="fill:#c3c6d0; stroke:none;" d="M38 53L39 54L38 53z"/>
	<path style="fill:#8d92a3; stroke:none;" d="M71 53L72 54L71 53z"/>
	<path style="fill:#6d4954; stroke:none;" d="M91 53L92 54L91 53z"/>
	<path style="fill:#ed7014; stroke:none;"
				d="M92.3333 53.6667L92.3333 54.3333L92.6667 54.3333L92.6667 53.6667L92.3333 53.6667z"/>
	<path style="fill:#00164d; stroke:none;"
				d="M71.3333 54.6667L71.3333 55.3333L71.6667 55.3333L71.6667 54.6667L71.3333 54.6667z"/>
	<path style="fill:#754c50; stroke:none;" d="M93 54L94 55L93 54z"/>
	<path style="fill:#b2b6c1; stroke:none;" d="M37 55L38 56L37 55z"/>
	<path style="fill:#c4ccd3; stroke:none;" d="M70 55L71 56L70 55z"/>
	<path style="fill:#6f4954; stroke:none;" d="M92 55L93 56L92 55z"/>
	<path style="fill:#ff7500; stroke:none;"
				d="M93.3333 55.6667L93.3333 56L93.6667 56.3333L93.6667 55.6667L93.3333 55.6667z"/>
	<path style="fill:#646d83; stroke:none;" d="M70 56L71 57L70 56z"/>
	<path style="fill:#7c7f93; stroke:none;" d="M36 57L37 58L36 57z"/>
	<path style="fill:#ba5e37; stroke:none;"
				d="M93.6667 57.3333L93.6667 57.6667L94.3333 57.6667L94 57.3333L93.6667 57.3333z"/>
	<path style="fill:#000041; stroke:none;"
				d="M35.3333 58.6667L35.3333 59.3333L35.6667 59.3333L35.6667 58.6667L35.3333 58.6667z"/>
	<path style="fill:#c8cfd7; stroke:none;" d="M36 58L37 59L36 58z"/>
	<path style="fill:#a2a8b3; stroke:none;" d="M69 58L70 59L69 58z"/>
	<path style="fill:#fb7301; stroke:none;"
				d="M94.3333 58.6667L94.3333 59.3333L94.6667 59.3333L94.6667 58.6667L94.3333 58.6667z"/>
	<path style="fill:#53607d; stroke:none;" d="M35 60L36 61L35 60z"/>
	<path style="fill:#9d5644; stroke:none;" d="M94 60L94 62L96 62L96 60L94 60z"/>
	<path style="fill:#00003f; stroke:none;"
				d="M34 61L34 66L34.5702 64.9329L34.608 64.5417L34.7461 63.1829L34.608 62.4583L34.5702 62.0671L34 61z"/>
	<path style="fill:#9496a7; stroke:none;" d="M35 61L36 62L35 61z"/>
	<path style="fill:#e2e7ea; stroke:none;"
				d="M35.3333 62.6667L35.3333 63.3333L35.6667 63.3333L35.6667 62.6667L35.3333 62.6667z"/>
	<path style="fill:#c1c4cc; stroke:none;" d="M67 62L68 63L67 62z"/>
	<path style="fill:#eb6d1d; stroke:none;"
				d="M95 62L95 69L95.5841 67.9144L95.6389 67.4877L95.8256 66.6975L95.8727 65.0795L95.8256 64.3025L95.6389 63.5123L95.5841 63.0856L95 62z"/>
	<path style="fill:#00346a; stroke:none;"
				d="M94 63L94 72L94.5849 70.9136L94.642 70.483L94.8387 69.6798L94.9522 67.9599L94.9522 67.0401L94.8387 65.3202L94.642 64.517L94.5849 64.0864L94 63z"/>
	<path style="fill:#7d8699; stroke:none;"
				d="M66.3333 64.6667L66.3333 65.3333L66.6667 65.3333L66.6667 64.6667L66.3333 64.6667z"/>
	<path style="fill:#9a9bac; stroke:none;"
				d="M59 65L60.0818 65.8542L60.4923 65.9576L61.2762 66.2423L61.9776 66.3302L63.348 66.3194L65 66L63.9182 65.4151L63.5077 65.358L62.7238 65.1605C62.0379 65.0742 61.3425 65.0371 60.652 65.0147L59 65z"/>
	<path style="fill:#654758; stroke:none;"
				d="M96 65L96 70L96.5702 68.9329L96.608 68.5417L96.7461 67.8171L96.608 66.4583L96.5702 66.0671L96 65z"/>
	<path style="fill:#002d59; stroke:none;"
				d="M34 66L34 70L34.5494 68.9753L34.5494 68.6204L34.679 68L34.5494 67.0247L34 66z"/>
	<path style="fill:#d2d3d7; stroke:none;" d="M57 66L58 67L57 66z"/>
	<path style="fill:#69788d; stroke:none;" d="M58 66L59 67L58 66z"/>
	<path style="fill:#c3ccd4; stroke:none;" d="M60 66L61 67L60 66z"/>
	<path style="fill:#d6dae0; stroke:none;" d="M63.6667 66.3333L64 66.6667L64.3333 66.6667L64 66.3333L63.6667 66.3333z"/>
	<path style="fill:#5a6681; stroke:none;" d="M65 66L66 67L65 66z"/>
	<path style="fill:#6a798d; stroke:none;" d="M57 67L58 68L57 67z"/>
	<path style="fill:#183d62; stroke:none;"
				d="M59.6073 68.0471L59.0471 68.6073L58.662 69.314L58.466 70.1289L58.466 70.9992L58.662 71.8673L59.6042 73.3534L60.3032 73.8634L61.1042 74.1682L61.9498 74.2485L63.5664 73.7623L64.7623 72.5664L65.1096 71.7901L65.1682 70.1042L64.3534 68.6042L63.6713 68.0463L62.8673 67.662L61.9992 67.466L61.1289 67.466L59.6073 68.0471z"/>
	<path style="fill:#aaafb7; stroke:none;" d="M64 67L65 68L64 67z"/>
	<path style="fill:#cfd0d7; stroke:none;"
				d="M65.3333 67.6667L65.3333 68.3333L65.6667 68.3333L65.6667 67.6667L65.3333 67.6667z"/>
	<path style="fill:#8b949f; stroke:none;"
				d="M66.3333 67.6667L66.3333 68.3333L66.6667 68.3333L66.6667 67.6667L66.3333 67.6667z"/>
	<path style="fill:#7d8899; stroke:none;"
				d="M56.3333 68.6667L56.3333 69.3333L56.6667 69.3333L56.6667 69L56.3333 68.6667z"/>
	<path style="fill:#70778c; stroke:none;" d="M68 68L69 69L68 68z"/>
	<path style="fill:#c6ced5; stroke:none;" d="M57 69L58 70L57 69z"/>
	<path style="fill:#c2cad3; stroke:none;" d="M67 69L67 70L68 72L68.5849 71.091L68.6528 70.6528L69 69L67 69z"/>
	<path style="fill:#001a4e; stroke:none;" d="M69 69L69 72L69.5787 71.125L69.5787 70.1991L69.5787 69.875L69 69z"/>
	<path style="fill:#ff7600; stroke:none;"
				d="M95 69L95 73L95.5494 71.9753L95.679 71L95.5494 70.3796L95.5494 70.0247L95 69z"/>
	<path style="fill:#000041; stroke:none;"
				d="M34.3333 70.6667L34.3333 71.3333L34.6667 71.3333L34.6667 71L34.3333 70.6667z"/>
	<path style="fill:#9d9daf; stroke:none;" d="M56 70L56 73L57.0108 72.091L57.1944 71.6528L58 70L56 70z"/>
	<path style="fill:#9494a2; stroke:none;"
				d="M67.3333 70.6667L67.3333 71.3333L67.6667 71.3333L67.6667 70.6667L67.3333 70.6667z"/>
	<path style="fill:#b0beca; stroke:none;" d="M36.6667 72.3333L37 72.6667L37.3333 72.6667L37 72.3333L36.6667 72.3333z"/>
	<path style="fill:#fdffff; stroke:none;" d="M57 72L58 73L57 72z"/>
	<path style="fill:#8a8da0; stroke:none;" d="M65 72L66 73L65 72z"/>
	<path style="fill:#d8dee2; stroke:none;"
				d="M66 72L65.9954 73.2917L65.8935 73.6019L65.5787 74.7083L65 76L66.3102 75.3657L66.5147 75.0633L67.0069 74.5386L67.2569 73.4614L66.9568 72.6343L66 72z"/>
	<path style="fill:#9799a9; stroke:none;" d="M68 72L69 73L68 72z"/>
	<path style="fill:#9a3800; stroke:none;"
				d="M37 73L37.909 73.5849L38.3472 73.6528L40 74L39.091 73.4151L38.6528 73.3472L37 73z"/>
	<path style="fill:#54475a; stroke:none;" d="M40 73L41 74L40 73z"/>
	<path style="fill:#99a1af; stroke:none;" d="M41 73L41 74L43 75L43 73L41 73z"/>
	<path style="fill:#d4d5dc; stroke:none;"
				d="M56 73L57.0401 73.8974L57.3588 74.0409L58.4776 74.5849L60 75L58.9599 73.9823L58.6412 73.838L57.5224 73.2948L56 73z"/>
	<path style="fill:#ffffff; stroke:none;" d="M65 73L64 75L65.0833 74L65.4167 73.6667L65 73z"/>
	<path style="fill:#5c6277; stroke:none;" d="M66 73L67 74L66 73z"/>
	<path style="fill:#c06332; stroke:none;" d="M94 73L94 75L96 75L96 73L94 73z"/>
	<path style="fill:#ff6f15; stroke:none;"
				d="M61 90L61 88L59.3287 88.0424L57.8395 88.1844C56.8784 88.3135 55.9381 88.5242 54.9954 88.7461L52 89.5216C51.0054 89.7575 50.0119 89.9526 49 90.098C47.6918 90.286 46.2845 90.3021 45.0039 89.936L43.044 89.1026L42.108 88.4715L41.2245 87.7176L40.4198 86.8657L39.7068 85.9452L38.6127 83.9954L37.9923 82L37.8727 81.0015L38.0201 79.0247L38.5787 77.1605C39.015 76.0829 39.5147 75.0591 40 74L38.1412 74.5903L37.4043 75.0293L36.4097 76.3179L36.0316 77.1481L35.7369 78.0586L35.3981 80.0046C35.2623 81.7068 35.5434 83.4066 36.152 84.9992L37.0895 86.9807L37.7029 87.9421L39.2245 89.6968L41.044 91.0617L43.0039 91.9637L44.0008 92.2616L45 92.4776L47 92.6551L48 92.6204L50 92.3696L51 92.1883L53 91.7647L54.9954 91.2693L57.8395 90.5147L59.3287 90.1983L61 90z"/>
	<path style="fill:#6e778b; stroke:none;" d="M40 74L41 75L40 74z"/>
	<path style="fill:#ffffff; stroke:none;"
				d="M41 74L39.9869 75.6713L39.4938 77.1566L39.3526 78.9807L39.4877 79.8958L39.76 80.7739L40.1836 81.5702L41.4336 82.8603L43.1088 83.7369L44.044 84.061L46.0039 84.571L49 85.1991L54 86.1998L75 90.3997L80.9985 91.5972C82.2723 91.8381 83.5479 92.0905 84.8395 92.2191L85.841 92.2222L86.3287 92.2693L88 92L86.9136 90.9676L86.483 90.7971L85.679 90.3603L83.9414 89.8349L80.9992 89.2006L73 87.6003L51 83.1998L41.6713 81.3156L40 81L41.5494 78L43 75L41 74z"/>
	<path style="fill:#e75600; stroke:none;"
				d="M43.3333 74.6667L43.3333 75.3333L43.6667 75.3333L43.6667 75L43.3333 74.6667z"/>
	<path style="fill:#872b10; stroke:none;" d="M44 74L45 75L44 74z"/>
	<path style="fill:#542b44; stroke:none;" d="M45 74L46 75L45 74z"/>
	<path style="fill:#506782; stroke:none;" d="M46 74L47 75L46 74z"/>
	<path style="fill:#a6b9ca; stroke:none;" d="M47.6667 74.3333L48 74.6667L48.3333 74.6667L48 74.3333L47.6667 74.3333z"/>
	<path style="fill:#607187; stroke:none;" d="M57 74L58 75L57 74z"/>
	<path style="fill:#8d8fa1; stroke:none;" d="M63 74L64 75L63 74z"/>
	<path style="fill:#667387; stroke:none;" d="M65 74L66 75L65 74z"/>
	<path style="fill:#534860; stroke:none;" d="M39 75L40 76L39 75z"/>
	<path style="fill:#ff6e18; stroke:none;"
				d="M44 75L43.5895 76.6451L43.4182 77.1142L43.1296 78L42 81L43.6713 81.098L45.1605 81.2901C47.7872 81.7131 50.3916 82.2785 53 82.8002L60 84.1998L65 85.2106L70.9753 86.5363L72.8395 86.8264L73.841 86.9105L76 87L74.9552 85.3287L74.5718 84.841L73.8488 83.8403C73.1092 82.8923 72.3514 81.9575 71.5571 81.0548L69.8295 79.3333L67.9606 78.1312L65.9961 77.6775L64.9992 77.6991L63 77.9491L62 78.0347L60 77.9151C58.9825 77.7758 57.989 77.4526 57 77.189L54 76.4282L52 76.0039L49.0247 75.439L47.1605 75.1705L45.6713 75.0417L44 75z"/>
	<path style="fill:#6d1c25; stroke:none;" d="M49.6667 75.3333L50 75.6667L50.3333 75.6667L50 75.3333L49.6667 75.3333z"/>
	<path style="fill:#484c63; stroke:none;" d="M51 75L52 76L51 75z"/>
	<path style="fill:#92a2b9; stroke:none;" d="M52.6667 75.3333L53 75.6667L53.3333 75.6667L53 75.3333L52.6667 75.3333z"/>
	<path style="fill:#848b9a; stroke:none;" d="M58.6667 75.3333L59 75.6667L59.3333 75.6667L59 75.3333L58.6667 75.3333z"/>
	<path style="fill:#dadfe4; stroke:none;" d="M63 75L63 77L65 77L64 75L63 75z"/>
	<path style="fill:#5d6273; stroke:none;" d="M64 75L65 76L64 75z"/>
	<path style="fill:#000043; stroke:none;" d="M67 75L68 76L67 75z"/>
	<path style="fill:#f77209; stroke:none;"
				d="M94.3333 75.6667L94.3333 76.3333L94.6667 76.3333L94.6667 76L94.3333 75.6667z"/>
	<path style="fill:#a84300; stroke:none;" d="M38 76L39 77L38 76z"/>
	<path style="fill:#354d6f; stroke:none;" d="M42 76L43 77L42 76z"/>
	<path style="fill:#c96431; stroke:none;"
				d="M43.3333 76.6667L43.3333 77.3333L43.6667 77.3333L43.6667 76.6667L43.3333 76.6667z"/>
	<path style="fill:#872c0f; stroke:none;" d="M54.6667 76.3333L55 76.6667L55.3333 76.6667L55 76.3333L54.6667 76.3333z"/>
	<path style="fill:#4f2941; stroke:none;" d="M56 76L57 77L56 76z"/>
	<path style="fill:#556b86; stroke:none;" d="M57 76L58 77L57 76z"/>
	<path style="fill:#acc4d4; stroke:none;"
				d="M60 76L60.3611 77.1389L60.6667 77.3333L61.6111 77.8889L63 78L62.091 77.1003L61.6528 76.8889L60 76z"/>
	<path style="fill:#9796a4; stroke:none;" d="M61.6667 76.3333L62 76.6667L62.3333 76.6667L62 76.3333L61.6667 76.3333z"/>
	<path style="fill:#97adc1; stroke:none;" d="M65 76L66 77L65 76z"/>
	<path style="fill:#a93a00; stroke:none;" d="M66 76L67 77L66 76z"/>
	<path style="fill:#8f554c; stroke:none;" d="M67 76L68 77L67 76z"/>
	<path style="fill:#003569; stroke:none;"
				d="M34 77L34 85L34.5849 83.9136L34.6412 83.4838L34.8364 82.6836L34.9321 81L34.8364 79.3164L34.6412 78.5162L34.5849 78.0864L34 77z"/>
	<path style="fill:#da6826; stroke:none;"
				d="M35.3333 77.6667L35.3333 78.3333L35.6667 78.3333L35.6667 78L35.3333 77.6667z"/>
	<path style="fill:#2e4165; stroke:none;" d="M38 77L39 78L38 77z"/>
	<path style="fill:#bbbec7; stroke:none;" d="M41 77L42 78L41 77z"/>
	<path style="fill:#003268; stroke:none;" d="M42 77L41 79L43 79L43 77L42 77z"/>
	<path style="fill:#6d1d1f; stroke:none;" d="M58 77L59 78L58 77z"/>
	<path style="fill:#516f8c; stroke:none;" d="M59 77L60 78L59 77z"/>
	<path style="fill:#8394ae; stroke:none;" d="M63 77L64 78L63 77z"/>
	<path style="fill:#5f3a46; stroke:none;" d="M64 77L65 78L64 77z"/>
	<path style="fill:#a25841; stroke:none;" d="M93.6667 77.3333L94 77.6667L94.3333 77.6667L94 77.3333L93.6667 77.3333z"/>
	<path style="fill:#8a9bb4; stroke:none;" d="M38 78L39 79L38 78z"/>
	<path style="fill:#c45200; stroke:none;"
				d="M60 78L60.909 78.5849L61.3472 78.6528L63 79L62.091 78.4151L61.6528 78.3472L60 78z"/>
	<path style="fill:#d86924; stroke:none;"
				d="M93 78L92.4151 79.4938L92.3472 80L92 82L92.8611 80.9753L92.9552 80.6204L93.2593 80L93.3673 79.0247L93 78z"/>
	<path style="fill:#9c3b00; stroke:none;" d="M37 79L37 82L37.5787 81.125L37.5787 80.8009L37.5787 79.875L37 79z"/>
	<path style="fill:#d8e3eb; stroke:none;" d="M38 79L38 82L38.5787 81.125L38.5787 80.8009L38.5787 79.875L38 79z"/>
	<path style="fill:#00003a; stroke:none;" d="M41.3333 79.6667L41.3333 80L41.6667 80.3333L41.6667 80L41.3333 79.6667z"/>
	<path style="fill:#8c534d; stroke:none;" d="M42 79L43 80L42 79z"/>
	<path style="fill:#6a707d; stroke:none;" d="M40 80L41 81L40 80z"/>
	<path style="fill:#68727e; stroke:none;" d="M39 81L40 82L39 81z"/>
	<path style="fill:#8991a4; stroke:none;"
				d="M42 81L42.909 81.5849L43.3472 81.6528L45 82L44.091 81.4151L43.6528 81.3472L42 81z"/>
	<path style="fill:#c74400; stroke:none;"
				d="M45.6667 81.3333L46 81.6667L46.3333 81.6667L46.3333 81.3333L45.6667 81.3333z"/>
	<path style="fill:#9a5647; stroke:none;" d="M91 81L92 82L91 81z"/>
	<path style="fill:#97a1af; stroke:none;"
				d="M38 82L38.3611 83.1389L38.6667 83.3333L39.6111 83.8889L41 84L40.091 82.9892L39.6528 82.8056L38 82z"/>
	<path style="fill:#8b8f9f; stroke:none;"
				d="M47 82L47.909 82.5849L48.3472 82.6528L50 83L49.091 82.4151L48.6528 82.3472L47 82z"/>
	<path style="fill:#cc4600; stroke:none;" d="M50.6667 82.3333L51 82.6667L51.3333 82.6667L51 82.3333L50.6667 82.3333z"/>
	<path style="fill:#ac5c3d; stroke:none;" d="M72 82L73 83L72 82z"/>
	<path style="fill:#ff7a00; stroke:none;" d="M91 82L92 83L91 82z"/>
	<path style="fill:#88514b; stroke:none;" d="M35.3333 83.6667L35.3333 84L35.6667 84.3333L35.6667 84L35.3333 83.6667z"/>
	<path style="fill:#cbd0d8; stroke:none;" d="M41 83L42 84L41 83z"/>
	<path style="fill:#928e9c; stroke:none;"
				d="M52 83L52.909 83.5849L53.3472 83.6528L55 84L54.091 83.4151L53.6528 83.3472L52 83z"/>
	<path style="fill:#d14900; stroke:none;" d="M55.6667 83.3333L56 83.6667L56.3333 83.6667L56 83.3333L55.6667 83.3333z"/>
	<path style="fill:#82514e; stroke:none;" d="M73 83L74 84L73 83z"/>
	<path style="fill:#f87309; stroke:none;"
				d="M90.3333 83.6667L90.3333 84.3333L90.6667 84.3333L90.6667 84L90.3333 83.6667z"/>
	<path style="fill:#ab5b40; stroke:none;" d="M91 83L92 84L91 83z"/>
	<path style="fill:#4c2432; stroke:none;" d="M38 84L39 85L38 84z"/>
	<path style="fill:#ffffff; stroke:none;"
				d="M39 84L40.1119 85.9329L40.74 86.7261C41.4603 87.3366 42.1962 87.9524 43.108 88.2623L44.044 88.5679L45.9992 88.8912L46.9761 88.956C48.6511 89.0003 50.3244 88.9989 52 89L50.9136 88.3727L50.483 88.2654L49.679 87.9753L48.8619 87.7639C47.8986 87.4915 46.9369 87.221 45.9969 86.8742C44.9909 86.5031 44.0197 86.0577 43.0448 85.6134L42.1605 85.1906L41.159 84.7731L40.6713 84.537L39 84z"/>
	<path style="fill:#979ea4; stroke:none;" d="M41 84L42 85L41 84z"/>
	<path style="fill:#000017; stroke:none;" d="M42 84L43 85L42 84z"/>
	<path style="fill:#00305b; stroke:none;"
				d="M43 84L43.3611 85.2222L44.2778 86.1389L44.6111 86.4722L46 87L45.6389 85.7778L44.7222 84.8611L44.3889 84.5278L43 84z"/>
	<path style="fill:#7a7d91; stroke:none;" d="M44 84L45 85L44 84z"/>
	<path style="fill:#a4aab8; stroke:none;" d="M45 84L46 85L45 84z"/>
	<path style="fill:#968d9a; stroke:none;"
				d="M57 84L57.909 84.5849L58.3472 84.6528L60 85L59.091 84.4151L58.6528 84.3472L57 84z"/>
	<path style="fill:#d64c00; stroke:none;" d="M60.6667 84.3333L61 84.6667L61.3333 84.6667L61 84.3333L60.6667 84.3333z"/>
	<path style="fill:#86514d; stroke:none;" d="M89 84L90 85L89 84z"/>
	<path style="fill:#8fa3b7; stroke:none;" d="M39 85L40 86L39 85z"/>
	<path style="fill:#8d94a3; stroke:none;" d="M42 85L43 86L42 85z"/>
	<path style="fill:#000030; stroke:none;"
				d="M46 85L46.6543 86.017L46.9954 86.1636L47.6088 86.5502L49.1242 86.8758L50.0139 86.946L51.8457 86.9954L54 87L52.9136 86.3735L52.4846 86.2693L51.6836 85.9907L49.142 85.439L48.1543 85.2785L47.6705 85.1836L46 85z"/>
	<path style="fill:#a8acbb; stroke:none;" d="M49.6667 85.3333L50 85.6667L50.3333 85.6667L50 85.3333L49.6667 85.3333z"/>
	<path style="fill:#978a95; stroke:none;"
				d="M62 85L62.909 85.5849L63.3472 85.6528L65 86L64.091 85.4151L63.6528 85.3472L62 85z"/>
	<path style="fill:#dd5000; stroke:none;"
				d="M65.6667 85.3333L65.6667 85.6667L66.3333 85.6667L66 85.3333L65.6667 85.3333z"/>
	<path style="fill:#ff7b00; stroke:none;" d="M89 85L90 86L89 85z"/>
	<path style="fill:#bb6035; stroke:none;" d="M36 86L37 87L36 86z"/>
	<path style="fill:#480e2d; stroke:none;" d="M39 86L40 87L39 86z"/>
	<path style="fill:#787b8f; stroke:none;" d="M44 86L45 87L44 86z"/>
	<path style="fill:#99a0ab; stroke:none;" d="M54.6667 86.3333L55 86.6667L55.3333 86.6667L55 86.3333L54.6667 86.3333z"/>
	<path style="fill:#9b8891; stroke:none;"
				d="M67 86L67.909 86.5849L68.3472 86.6528L70 87L69.091 86.4151L68.6528 86.3472L67 86z"/>
	<path style="fill:#a13200; stroke:none;" d="M70 86L71 87L70 86z"/>
	<path style="fill:#ff7900; stroke:none;" d="M88 86L89 87L88 86z"/>
	<path style="fill:#604856; stroke:none;" d="M89 86L90 87L89 86z"/>
	<path style="fill:#343255; stroke:none;" d="M40 87L41 88L40 87z"/>
	<path style="fill:#c3cad2; stroke:none;"
				d="M47 87L48.0818 87.6273L48.4923 87.7315L49.2762 88.0177L49.9776 88.196L51.348 88.5532L53 89L52.3472 87.983L52.0093 87.8364L51.4144 87.4498L50.0116 87.1242L48.6512 87.0185L47 87z"/>
	<path style="fill:#e6ecf0; stroke:none;"
				d="M53 87L53.909 87.5849L54.3472 87.6528L56 88L55.091 87.4151L54.6528 87.3472L53 87z"/>
	<path style="fill:#6d8da6; stroke:none;" d="M56 87L57 88L56 87z"/>
	<path style="fill:#00003f; stroke:none;" d="M57 87L58 88L57 87z"/>
	<path style="fill:#495269; stroke:none;" d="M58 87L59 88L58 87z"/>
	<path style="fill:#74859f; stroke:none;" d="M59 87L60 88L59 87z"/>
	<path style="fill:#a0b1c6; stroke:none;" d="M60 87L61 88L60 87z"/>
	<path style="fill:#9b888e; stroke:none;"
				d="M72 87L72.909 87.5849L73.3472 87.6528L75 88L74.091 87.4151L73.6528 87.3472L72 87z"/>
	<path style="fill:#d35300; stroke:none;"
				d="M75.6667 87.3333L75.6667 87.6667L76.3333 87.6667L76 87.3333L75.6667 87.3333z"/>
	<path style="fill:#ff7600; stroke:none;" d="M87 87L88 88L87 87z"/>
	<path style="fill:#8f534a; stroke:none;" d="M88 87L89 88L88 87z"/>
	<path style="fill:#7c4f4f; stroke:none;" d="M37 88L38 89L37 88z"/>
	<path style="fill:#29224b; stroke:none;" d="M41 88L42 89L41 88z"/>
	<path style="fill:#a8b4c3; stroke:none;" d="M42 88L43 89L42 88z"/>
	<path style="fill:#8292ac; stroke:none;" d="M53 88L54 89L53 88z"/>
	<path style="fill:#565162; stroke:none;" d="M54 88L55 89L54 88z"/>
	<path style="fill:#8c2e0b; stroke:none;" d="M55 88L56 89L55 88z"/>
	<path style="fill:#712428; stroke:none;" d="M61.6667 88.3333L62 88.6667L62.3333 88.6667L62 88.3333L61.6667 88.3333z"/>
	<path style="fill:#5b586b; stroke:none;" d="M63 88L64 89L63 88z"/>
	<path style="fill:#83899d; stroke:none;" d="M64 88L65 89L64 88z"/>
	<path style="fill:#b0b9c4; stroke:none;" d="M65 88L66 89L65 88z"/>
	<path style="fill:#a6abb9; stroke:none;" d="M77 88L78 89L77 88z"/>
	<path style="fill:#7b7e93; stroke:none;" d="M78 88L79 89L78 88z"/>
	<path style="fill:#000948; stroke:none;"
				d="M80.6667 88.3333L80.6667 88.6667L81.3333 88.6667L81.3333 88.3333L80.6667 88.3333z"/>
	<path style="fill:#ff7700; stroke:none;" d="M86 88L87 89L86 88z"/>
	<path style="fill:#9f5746; stroke:none;" d="M87 88L88 89L87 88z"/>
	<path style="fill:#b05d3c; stroke:none;" d="M38 89L39 90L38 89z"/>
	<path style="fill:#a1492b; stroke:none;" d="M42 89L43 90L42 89z"/>
	<path style="fill:#000047; stroke:none;" d="M43 89L44 90L43 89z"/>
	<path style="fill:#5e7293; stroke:none;" d="M44 89L45 90L44 89z"/>
	<path style="fill:#bdccd8; stroke:none;"
				d="M45 89L46.0401 89.5849L46.3588 89.6412L47.4776 89.8974L49 90L47.9599 89.4151L47.6412 89.3588L46.5224 89.1026L45 89z"/>
	<path style="fill:#7d8da7; stroke:none;" d="M49 89L50 90L49 89z"/>
	<path style="fill:#505b71; stroke:none;" d="M50 89L51 90L50 89z"/>
	<path style="fill:#78241f; stroke:none;" d="M51 89L52 90L51 89z"/>
	<path style="fill:#b74b00; stroke:none;" d="M52 89L53 90L52 89z"/>
	<path style="fill:#af5f3b; stroke:none;"
				d="M61 89L61.909 89.5849L62.3472 89.6528L64 90L63.091 89.4151L62.6528 89.3472L61 89z"/>
	<path style="fill:#62444b; stroke:none;" d="M64 89L65 90L64 89z"/>
	<path style="fill:#000045; stroke:none;" d="M66.6667 89.3333L67 89.6667L67.3333 89.6667L67 89.3333L66.6667 89.3333z"/>
	<path style="fill:#8b8d9e; stroke:none;" d="M69 89L70 90L69 89z"/>
	<path style="fill:#b2bcc7; stroke:none;" d="M70 89L71 90L70 89z"/>
	<path style="fill:#a2a8b7; stroke:none;" d="M82 89L83 90L82 89z"/>
	<path style="fill:#777b91; stroke:none;" d="M83 89L84 90L83 89z"/>
	<path style="fill:#873626; stroke:none;" d="M85.6667 89.3333L86 89.6667L86.3333 89.6667L86 89.3333L85.6667 89.3333z"/>
	<path style="fill:#9d5944; stroke:none;" d="M39 90L40 91L39 90z"/>
	<path style="fill:#b54c08; stroke:none;"
				d="M45 90L45.909 90.5849L46.3472 90.6528L48 91L47.091 90.4151L46.6528 90.3472L45 90z"/>
	<path style="fill:#814e4f; stroke:none;" d="M57.6667 90.3333L58 90.6667L58.3333 90.6667L58 90.3333L57.6667 90.3333z"/>
	<path style="fill:#000048; stroke:none;"
				d="M71.6667 90.3333L71.6667 90.6667L72.3333 90.6667L72 90.3333L71.6667 90.3333z"/>
	<path style="fill:#4c5a78; stroke:none;" d="M73 90L74 91L73 90z"/>
	<path style="fill:#8e8fa0; stroke:none;" d="M74 90L75 91L74 90z"/>
	<path style="fill:#b7c0ca; stroke:none;" d="M75 90L76 91L75 90z"/>
	<path style="fill:#68758d; stroke:none;" d="M87 90L88 91L87 90z"/>
	<path style="fill:#8a524a; stroke:none;" d="M54 91L55 92L54 91z"/>
	<path style="fill:#000e4c; stroke:none;"
				d="M74 91L75.0401 91.5849L75.3588 91.6412L76.4776 91.8974L78 92L76.9599 91.4151L76.6412 91.3588L75.5224 91.1026L74 91z"/>
	<path style="fill:#54607c; stroke:none;" d="M78 91L79 92L78 91z"/>
	<path style="fill:#9193a4; stroke:none;" d="M79 91L80 92L79 91z"/>
	<path style="fill:#bdc5cd; stroke:none;" d="M80 91L81 92L80 91z"/>
	<path style="fill:#d56728; stroke:none;" d="M43.6667 92.3333L44 92.6667L44.3333 92.6667L44 92.3333L43.6667 92.3333z"/>
	<path style="fill:#905347; stroke:none;" d="M49.6667 92.3333L50 92.6667L50.3333 92.6667L50 92.3333L49.6667 92.3333z"/>
	<path style="fill:#001650; stroke:none;"
				d="M79 92L80.0401 92.5849L80.3588 92.6412L81.4776 92.8974L83 93L81.9599 92.4151L81.6412 92.3588L80.5224 92.1026L79 92z"/>
	<path style="fill:#5b6580; stroke:none;" d="M83 92L84 93L83 92z"/>
	<path style="fill:#9496a8; stroke:none;" d="M84 92L85 93L84 92z"/>
	<path style="fill:#c2cad2; stroke:none;" d="M85 92L86 93L85 92z"/>
	<path style="fill:#a9aeb9; stroke:none;" d="M87 92L88 93L87 92z"/>
	<path style="fill:#00356a; stroke:none;"
				d="M43 93L44.0864 93.5849L44.5154 93.642L45.3164 93.8395L47.0139 93.966L51 94L49.9136 93.4151L49.4846 93.358L48.6836 93.1605L46.9861 93.034L43 93z"/>
	<path style="fill:#001d50; stroke:none;"
				d="M84 93L85.0401 93.5849L85.3588 93.6412L86.4776 93.8974L88 94L86.9599 93.4151L86.6412 93.3588L85.5224 93.1026L84 93z"/>
	<path style="fill:#002555; stroke:none;"
				d="M39 100L40.0864 100.585L40.517 100.642L41.3194 100.84C42.2013 100.943 43.0879 100.957 43.9738 100.986L45.8418 100.999L48 101L46.9136 100.415L46.483 100.358L45.6806 100.16C44.7987 100.057 43.9121 100.043 43.0262 100.014L41.1582 100.001L39 100z"/>
	<path style="fill:#00315b; stroke:none;"
				d="M50 100L51.0401 100.585L51.3588 100.641L52.4776 100.897L54 101L52.9599 100.415L52.6412 100.359L51.5224 100.103L50 100M64 100L65.0401 100.585L65.3588 100.641L66.4776 100.897L68 101L66.9599 100.415L66.6412 100.359L65.5224 100.103L64 100M85 100L86.0864 100.585L86.517 100.642L87.3194 100.84C88.2013 100.943 89.0879 100.957 89.9738 100.986L91.8418 100.999L94 101L92.9136 100.415L92.483 100.358L91.6806 100.16C90.7988 100.057 89.912 100.043 89.0262 100.014L87.1582 100.001L85 100z"/>
	<path style="fill:#bfc4cc; stroke:none;"
				d="M39 101L40.0864 101.589L40.5154 101.657L41.3164 101.88L42.1134 101.997L43.858 102.275L45.3295 102.567L47 103L46.3457 101.983L46.0046 101.836L45.3912 101.45L43.8758 101.124L42.9861 101.054L41.1543 101.005L39 101z"/>
	<path style="fill:#637289; stroke:none;" d="M47 101L48 102L47 101z"/>
	<path style="fill:#a7a5b1; stroke:none;"
				d="M50 101L51.0401 101.585L51.3588 101.641L52.4776 101.897L54 102L52.9599 101.415L52.6412 101.359L51.5224 101.103L50 101M64 101L65.0401 101.585L65.3588 101.641L66.4776 101.897L68 102L66.9599 101.415L66.6412 101.359L65.5224 101.103L64 101z"/>
	<path style="fill:#5f6d85; stroke:none;" d="M76 101L77 102L76 101z"/>
	<path style="fill:#002b57; stroke:none;"
				d="M77 101L77 110L77.5849 108.914L77.642 108.483L77.8387 107.68L77.9522 105.96L77.9522 105.04L77.8387 103.32L77.642 102.517L77.5849 102.086L77 101z"/>
	<path style="fill:#a5a4b0; stroke:none;"
				d="M85 101L86.0864 101.586L86.517 101.646L87.3194 101.854L88.1335 101.947L90.8441 102.286L92.3287 102.568L94 103L93.3457 101.983L93.0046 101.836L92.3897 101.45L90.8557 101.124L89.0255 101.018L87.1582 101.001L85 101z"/>
	<path style="fill:#5a6682; stroke:none;" d="M94 101L95 102L94 101z"/>
	<path style="fill:#adafb9; stroke:none;" d="M38 102L39 103L38 102z"/>
	<path style="fill:#ffffff; stroke:none;"
				d="M38 103C38.5579 104.317 39.2388 105.629 39.5355 107.043L39.8704 108.98L39.9815 110.84L40 114L43 114L43.0046 111.841L43.0579 109.955L43.1435 108.977L43.5448 107.023C43.9014 105.834 44.4817 104.755 45.0733 103.671L46 102L42.8642 102.034L41.1358 102.16L40.1543 102.358L39.6698 102.415L38 103z"/>
	<path style="fill:#000044; stroke:none;" d="M47 102L48 103L47 102z"/>
	<path style="fill:#ced3d9; stroke:none;" d="M48 102L49 103L48 102z"/>
	<path style="fill:#ffffff; stroke:none;"
				d="M49.1481 102.746L47.6034 103.742L46.6042 105.228L46.3225 106.109L46.1674 107.043L46.1674 108.985L46.3225 109.942L46.6042 110.852L47.6034 112.397L49.1481 113.393L50.0579 113.667L51.0154 113.808L51.9892 113.833L52.9568 113.752L54.7716 113.257L56.2577 112.258L57.2539 110.772L57.7276 108.96L57.7276 107.04L57.5509 106.108L57.2539 105.228L56.2577 103.742L54.7716 102.746L53.8912 102.449L52.9568 102.272L51.0154 102.272L49.1481 102.746z"/>
	<path style="fill:#cccfd6; stroke:none;" d="M55 102L56 103L55 102z"/>
	<path style="fill:#ced2d9; stroke:none;" d="M62 102L63 103L62 102z"/>
	<path style="fill:#ffffff; stroke:none;"
				d="M63.1481 102.746L61.6034 103.742L60.6042 105.228L60.3225 106.109L60.1674 107.043L60.1674 108.985L60.3225 109.942L60.6042 110.852L61.6034 112.397L63.1481 113.393L64.0579 113.667L65.0154 113.808L65.9892 113.833L66.9568 113.752L68.7716 113.257L70.2577 112.258L71.2539 110.772L71.7276 108.96L71.7276 107.04L71.5509 106.108L71.2539 105.228L70.2577 103.742L68.7716 102.746L67.8912 102.449L66.9568 102.272L65.0154 102.272L63.1481 102.746z"/>
	<path style="fill:#cccfd6; stroke:none;" d="M69 102L70 103L69 102z"/>
	<path style="fill:#adb5c0; stroke:none;"
				d="M75 102L75.5216 104.157L75.7106 105.156C75.8276 106.051 75.9163 106.942 75.9599 107.844C76.0106 108.894 75.9912 109.951 76 111L76.5849 109.914L76.642 109.483L76.8387 108.68C76.9353 107.808 76.9773 106.916 76.9321 106.04L76.8727 105.144L76.5502 103.61L76.1636 102.995L76.017 102.654L75 102z"/>
	<path style="fill:#ffffff; stroke:none;"
				d="M88 111L86.375 111.433L85 111.721L84.625 111.808L83 112L83 114C84.0553 113.987 85.0893 114 86.1412 113.941L86.9861 113.852L88.686 113.397L89.9529 112.401L90.338 111.701L90.534 110.91L90.534 110.086L90.3395 109.284L89.4167 107.937L88.7261 107.425L88.0123 107.029L86.6512 106.494L85 106L86.6698 104.98L87.1543 104.823L88.1358 104.416L89.8642 103.964L90.8457 103.696L91.3302 103.603L93 103L91.9136 102.415L91.483 102.358L90.679 102.161L88.946 102.053L88.0008 102.073L86.1474 102.319L84.608 103.027L83.662 104.302L83.466 105.105L83.4645 105.953L84.0224 107.604L84.5633 108.353L85.1582 108.975L86.3904 109.944L88 111z"/>
	<path style="fill:#aaadb8; stroke:none;" d="M37 103L38 104L37 103z"/>
	<path style="fill:#969baa; stroke:none;" d="M45 103L46 104L45 103z"/>
	<path style="fill:#12144a; stroke:none;" d="M46 103L47 104L46 103z"/>
	<path style="fill:#a9abb7; stroke:none;" d="M74 103L75 104L74 103z"/>
	<path style="fill:#ffffff; stroke:none;"
				d="M75 103L73.983 104.671L73.4498 106.16L73.1242 108.02L73.0177 109.957L73 114L81 114L81 112L78.9884 111.41L78.1574 110.971L77.0023 109.683L76.3025 107.96L75.9653 106.133L75.8588 105.32L75.6466 104.517L75.5856 104.086L75 103z"/>
	<path style="fill:#a4a7b4; stroke:none;" d="M92 103L93 104L92 103z"/>
	<path style="fill:#8990a0; stroke:none;" d="M36 104L37 105L36 104z"/>
	<path style="fill:#e5e6e8; stroke:none;"
				d="M37.6667 104.333L37.6667 104.667L38.3333 104.667L38.3333 104.333L37.6667 104.333z"/>
	<path style="fill:#9499a8; stroke:none;" d="M44 104L45 105L44 104z"/>
	<path style="fill:#000028; stroke:none;" d="M45 104L46 105L45 104z"/>
	<path style="fill:#cccfd7; stroke:none;" d="M57 104L58 105L57 104z"/>
	<path style="fill:#000044; stroke:none;"
				d="M58.6667 104.333L58.6667 104.667L59.3333 104.667L59.3333 104.333L58.6667 104.333z"/>
	<path style="fill:#cccfd7; stroke:none;" d="M71 104L72 105L71 104z"/>
	<path style="fill:#a3a6b3; stroke:none;" d="M73 104L74 105L73 104z"/>
	<path style="fill:#b0b9c3; stroke:none;" d="M82 104L82 107L82.5787 106.125L82.5787 105.199L82.5787 104.875L82 104z"/>
	<path style="fill:#e7e8e9; stroke:none;"
				d="M86 104L87.0602 104.585L87.4722 104.642L88.1605 104.84L89.3904 104.965L91 105L89.9398 104.415L89.5278 104.358L88.8395 104.16L87.6096 104.035L86 104z"/>
	<path style="fill:#9b9fad; stroke:none;" d="M91 104L92 105L91 104z"/>
	<path style="fill:#000038; stroke:none;" d="M37.6667 105.333L38 105.667L38.3333 105.667L38 105.333L37.6667 105.333z"/>
	<path style="fill:#caced4; stroke:none;"
				d="M39 105L39 114L39.5849 112.914L39.642 112.483L39.8387 111.68L39.9522 109.96L39.9522 109.04L39.8387 107.32L39.642 106.517L39.5849 106.086L39 105z"/>
	<path style="fill:#00003f; stroke:none;"
				d="M43 105L43 114L43.6265 112.914L43.7307 112.483L44.0093 111.681L44.3904 109.966L44.7106 108.156L44.8318 107.158L44.902 106.671L45 105L43 105z"/>
	<path style="fill:#84879a; stroke:none;" d="M45 105L46 106L45 105z"/>
	<path style="fill:#00004a; stroke:none;"
				d="M50 105L50.909 105.585L51.3472 105.653L53 106L52.091 105.415L51.6528 105.347L50 105z"/>
	<path style="fill:#193e63; stroke:none;"
				d="M53 105L52 106L50 106L50 110L51.4938 110.315L52 110.458L54 111L55 110L54.3858 107.978L54.1296 107.16L53.8179 106.472L53.6836 106.06L53 105z"/>
	<path style="fill:#2f496b; stroke:none;" d="M58 105L59 106L58 105z"/>
	<path style="fill:#818498; stroke:none;" d="M59 105L60 106L59 105z"/>
	<path style="fill:#00004a; stroke:none;"
				d="M64 105L64.909 105.585L65.3472 105.653L67 106L66.091 105.415L65.6528 105.347L64 105z"/>
	<path style="fill:#193e63; stroke:none;"
				d="M67 105L66 106L64 106L64 110L65.4938 110.315L66 110.458L68 111L69 110L68.3858 107.978L68.1296 107.16L67.8179 106.472L67.6836 106.06L67 105z"/>
	<path style="fill:#d1d4d9; stroke:none;" d="M85 105L86 106L85 105z"/>
	<path style="fill:#00074b; stroke:none;"
				d="M86 105L87.0602 105.731L88.1605 106.099L88.9784 106.144L89.3904 106.238L91 106L89.9398 105.415L89.5278 105.358L88.8395 105.16L87.6096 105.035L86 105z"/>
	<path style="fill:#002153; stroke:none;"
				d="M38 106L38 115L38.5849 113.914L38.642 113.483L38.8387 112.68L38.9522 110.96L38.9522 110.04L38.8387 108.32L38.642 107.517L38.5849 107.086L38 106z"/>
	<path style="fill:#e4e5e7; stroke:none;"
				d="M45 106L45 110L45.5494 108.975L45.5494 108.62L45.679 108L45.5494 107.025L45 106z"/>
	<path style="fill:#002354; stroke:none;"
				d="M49 106L49 110L49.5494 108.975L49.5494 108.62L49.679 108L49.5494 107.025L49 106z"/>
	<path style="fill:#485773; stroke:none;" d="M54 106L55 107L54 106z"/>
	<path style="fill:#9a9eae; stroke:none;"
				d="M58 106L58.1026 107.625L58.3588 109L58.4151 109.375L59 111L59.5015 109.94L59.5417 109.528L59.7099 108.84L59.7917 108.022L60 106L58 106z"/>
	<path style="fill:#002354; stroke:none;"
				d="M63 106L63 110L63.5494 108.975L63.5494 108.62L63.679 108L63.5494 107.025L63 106z"/>
	<path style="fill:#485773; stroke:none;" d="M68 106L69 107L68 106z"/>
	<path style="fill:#9696a4; stroke:none;"
				d="M72 106L72 110L72.5494 108.975L72.5494 108.62L72.679 108L72.5494 107.025L72 106z"/>
	<path style="fill:#a7a5b1; stroke:none;"
				d="M86 106L86.909 106.585L87.3472 106.653L89 107L88.091 106.415L87.6528 106.347L86 106z"/>
	<path style="fill:#c2c7ce; stroke:none;"
				d="M48.3333 107.667L48.3333 108.333L48.6667 108.333L48.6667 108L48.3333 107.667z"/>
	<path style="fill:#00003b; stroke:none;"
				d="M54.3333 107.667L54.3333 108.333L54.6667 108.333L54.6667 107.667L54.3333 107.667z"/>
	<path style="fill:#dddfe2; stroke:none;"
				d="M59.3333 107.667L59.3333 108L59.6667 108.333L59.6667 108L59.3333 107.667z"/>
	<path style="fill:#c2c7ce; stroke:none;"
				d="M62.3333 107.667L62.3333 108.333L62.6667 108.333L62.6667 107.667L62.3333 107.667z"/>
	<path style="fill:#00003b; stroke:none;"
				d="M68.3333 107.667L68.3333 108L68.6667 108.333L68.6667 107.667L68.3333 107.667z"/>
	<path style="fill:#758093; stroke:none;" d="M83 108L84 109L83 108z"/>
	<path style="fill:#b4b6c1; stroke:none;" d="M85 109L86 110L85 109z"/>
	<path style="fill:#7c8095; stroke:none;"
				d="M91.3333 109.667L91.3333 110.333L91.6667 110.333L91.6667 109.667L91.3333 109.667z"/>
	<path style="fill:#888a9c; stroke:none;" d="M45 110L46 111L45 110z"/>
	<path style="fill:#00004a; stroke:none;"
				d="M50 110L50.909 110.585L51.3472 110.653L53 111L52.091 110.415L51.6528 110.347L50 110z"/>
	<path style="fill:#2e496a; stroke:none;" d="M58 110L59 111L58 110z"/>
	<path style="fill:#00004a; stroke:none;"
				d="M64 110L64.909 110.585L65.3472 110.653L67 111L66.091 110.415L65.6528 110.347L64 110z"/>
	<path style="fill:#00003d; stroke:none;"
				d="M72 110L71.8056 112L71.7299 112.506L72 114L72.5494 112.975L72.679 112L72.5494 111.38L72.5494 111.025L72 110z"/>
	<path style="fill:#000a4c; stroke:none;"
				d="M77 110L78.0401 110.585L78.3588 110.641L79.4776 110.897L81 111L79.9599 110.415L79.6412 110.359L78.5224 110.103L77 110z"/>
	<path style="fill:#00003f; stroke:none;"
				d="M82 110L83.0602 110.585L83.4722 110.642L84.1605 110.84L85.3904 110.965L87 111L85.9398 110.415L85.5278 110.358L84.8395 110.16L83.6096 110.035L82 110z"/>
	<path style="fill:#616477; stroke:none;" d="M87 110L88 111L87 110z"/>
	<path style="fill:#cfd3da; stroke:none;" d="M57 111L58 112L57 111z"/>
	<path style="fill:#000048; stroke:none;"
				d="M58.6667 111.333L58.6667 111.667L59.3333 111.667L59.3333 111.333L58.6667 111.333z"/>
	<path style="fill:#cfd4db; stroke:none;" d="M71 111L72 112L71 111z"/>
	<path style="fill:#e7e8e9; stroke:none;"
				d="M77 111L78.0401 111.585L78.3588 111.641L79.4776 111.897L81 112L79.9599 111.415L79.6412 111.359L78.5224 111.103L77 111z"/>
	<path style="fill:#414768; stroke:none;"
				d="M81 111L81 115L81.5494 113.975L81.679 113L81.5494 112.38L81.5494 112.025L81 111z"/>
	<path style="fill:#e7e8e9; stroke:none;"
				d="M82 114L83.213 113.256L84.2901 112.71L85.0617 112.452L85.4537 112.281L87 112L86.2222 111.278L85.6944 111.25L84.9167 111.083L83.3333 111.333L82.7222 111.667L82.1111 112.611L82 114z"/>
	<path style="fill:#bcbdc3; stroke:none;" d="M55 113L56 114L55 113M69 113L70 114L69 113z"/>
	<path style="fill:#a7a6b2; stroke:none;"
				d="M39 114L40.0401 114.585L40.3588 114.641L41.4776 114.897L43 115L41.9599 114.415L41.6412 114.359L40.5224 114.103L39 114z"/>
	<path style="fill:#a7a5b1; stroke:none;"
				d="M50 114L51.0401 114.585L51.3588 114.641L52.4776 114.897L54 115L52.9599 114.415L52.6412 114.359L51.5224 114.103L50 114M64 114L65.0401 114.585L65.3588 114.641L66.4776 114.897L68 115L66.9599 114.415L66.6412 114.359L65.5224 114.103L64 114z"/>
	<path style="fill:#a5a4b0; stroke:none;"
				d="M73 114L74.0864 114.585L74.5154 114.642L75.3164 114.84L77.0139 114.966L81 115L79.9136 114.415L79.4846 114.358L78.6836 114.16L76.9861 114.034L73 114M82 114L83.0849 114.585L83.5123 114.642L84.2963 114.84L85.8981 114.966L89 115L87.9151 114.415L87.4877 114.358L86.7037 114.16L85.1019 114.034L82 114z"/>
	<path style="fill:#163d62; stroke:none;"
				d="M4 115L4.10262 116.671L4.34491 118.142L4.89352 119.891L5.3179 120.726L6.50926 122.142L7.25386 122.682L8.89429 123.427L9.85957 123.666L12 124L11.3611 122.738L11.0448 122.414L10.4838 121.707L9.87191 121.094L8.49614 119.64C7.82479 118.878 7.20968 118.073 6.58565 117.273L6.06481 116.595L5.43904 115.992L5.16127 115.654L4 115z"/>
	<path style="fill:#00315b; stroke:none;"
				d="M39 115L40.0401 115.585L40.3588 115.641L41.4776 115.897L43 116L41.9599 115.415L41.6412 115.359L40.5224 115.103L39 115M73 115L74.0864 115.585L74.5154 115.642L75.3164 115.84L77.0139 115.966L81 116L79.9136 115.415L79.4846 115.358L78.6836 115.16L76.9861 115.034L73 115M82 115L83.0849 115.585L83.5123 115.642L84.2963 115.84L85.8981 115.966L89 116L87.9151 115.415L87.4877 115.358L86.7037 115.16L85.1019 115.034L82 115z"/>
	<path style="fill:#945547; stroke:none;" d="M8 116L9 117L8 116M119 116L120 117L119 116z"/>
	<path style="fill:#ffffff; stroke:none;"
				d="M0.333333 117.667L0.333333 118L0.666667 118.333L0.666667 117.667L0.333333 117.667z"/>
	<path style="fill:#ad5c3c; stroke:none;" d="M6 117L7 118L6 117z"/>
	<path style="fill:#ac5c3c; stroke:none;" d="M121 117L122 118L121 117z"/>
	<path style="fill:#ffffff; stroke:none;"
				d="M127.333 117.667L127.333 118L127.667 118.333L127.667 117.667L127.333 117.667z"/>
	<path style="fill:#777b8f; stroke:none;" d="M3 118L4 119L3 118z"/>
	<path style="fill:#787b8f; stroke:none;" d="M124 118L125 119L124 118z"/>
	<path style="fill:#814f4d; stroke:none;" d="M11 119L12 120L11 119z"/>
	<path style="fill:#003669; stroke:none;"
				d="M12 119L13.0864 119.585L13.517 119.642L14.321 119.84C15.5433 119.982 16.7763 119.982 18.0046 119.997L24 120L44 120L116 120L114.914 119.415L114.483 119.358L113.679 119.16C112.457 119.018 111.224 119.018 109.995 119.003L104 119L84 119L12 119z"/>
	<path style="fill:#81504d; stroke:none;" d="M116 119L117 120L116 119z"/>
	<path style="fill:#ffffff; stroke:none;" d="M1 120L2 121L1 120z"/>
	<path style="fill:#959ba8; stroke:none;" d="M4 120L5 121L4 120z"/>
	<path style="fill:#4f4558; stroke:none;" d="M8 120L9 121L8 120z"/>
	<path style="fill:#dc6a25; stroke:none;"
				d="M13 120L14.0864 120.585L14.517 120.642L15.321 120.84C16.5433 120.982 17.7763 120.982 19.0046 120.997L24 121L44 121L115 121L113.914 120.415L113.483 120.358L112.679 120.16C111.457 120.018 110.224 120.018 108.995 120.003L104 120L84 120L13 120z"/>
	<path style="fill:#4f4558; stroke:none;" d="M119 120L120 121L119 120z"/>
	<path style="fill:#959ca9; stroke:none;" d="M123 120L124 121L123 120z"/>
	<path style="fill:#ffffff; stroke:none;" d="M126 120L127 121L126 120z"/>
	<path style="fill:#bb6035; stroke:none;" d="M10 121L11 122L10 121M117 121L118 122L117 121z"/>
	<path style="fill:#975743; stroke:none;"
				d="M12 122L13.0864 122.585L13.517 122.642L14.321 122.84C15.5433 122.982 16.7763 122.982 18.0046 122.997L24 123L44 123L116 123L114.914 122.415L114.483 122.358L113.679 122.16C112.457 122.018 111.224 122.018 109.995 122.003L104 122L84 122L12 122z"/>
	<path style="fill:#ffffff; stroke:none;" d="M3 123L4 125L5 125L4 123L3 123z"/>
	<path style="fill:#9098a5; stroke:none;" d="M7 123L8 124L7 123z"/>
	<path style="fill:#9198a6; stroke:none;" d="M120 123L121 124L120 123z"/>
	<path style="fill:#ffffff; stroke:none;" d="M124 123L123 125L124.083 124L124.417 123.667L124 123z"/>
	<path style="fill:#73788d; stroke:none;" d="M9 124L10 125L9 124M118 124L119 125L118 124z"/>
	<path style="fill:#828596; stroke:none;"
				d="M12 125L13.0864 125.585L13.517 125.642L14.321 125.84C15.5433 125.982 16.7763 125.982 18.0046 125.997L24 126L44 126L116 126L114.914 125.415L114.483 125.358L113.679 125.16C112.457 125.018 111.224 125.018 109.995 125.003L104 125L84 125L12 125z"/>
	<path style="fill:#ffffff; stroke:none;"
				d="M7 126L8 127L7 126M120 126L121 127L120 126M9.66667 127.333L10 127.667L10.3333 127.667L10.3333 127.333L9.66667 127.333M117.667 127.333L118 127.667L118.333 127.667L118.333 127.333L117.667 127.333z"/>
</svg>
